G04 #@! TF.GenerationSoftware,KiCad,Pcbnew,(5.1.10)-1*
G04 #@! TF.CreationDate,2021-09-07T16:34:36-04:00*
G04 #@! TF.ProjectId,Motor_Controller,4d6f746f-725f-4436-9f6e-74726f6c6c65,rev?*
G04 #@! TF.SameCoordinates,Original*
G04 #@! TF.FileFunction,Copper,L1,Top*
G04 #@! TF.FilePolarity,Positive*
%FSLAX46Y46*%
G04 Gerber Fmt 4.6, Leading zero omitted, Abs format (unit mm)*
G04 Created by KiCad (PCBNEW (5.1.10)-1) date 2021-09-07 16:34:36*
%MOMM*%
%LPD*%
G01*
G04 APERTURE LIST*
G04 #@! TA.AperFunction,EtchedComponent*
%ADD10C,0.100000*%
G04 #@! TD*
G04 #@! TA.AperFunction,SMDPad,CuDef*
%ADD11R,1.060000X0.650000*%
G04 #@! TD*
G04 #@! TA.AperFunction,SMDPad,CuDef*
%ADD12R,0.900000X0.800000*%
G04 #@! TD*
G04 #@! TA.AperFunction,SMDPad,CuDef*
%ADD13R,1.650000X2.850000*%
G04 #@! TD*
G04 #@! TA.AperFunction,ComponentPad*
%ADD14C,4.000000*%
G04 #@! TD*
G04 #@! TA.AperFunction,SMDPad,CuDef*
%ADD15R,1.000000X1.000000*%
G04 #@! TD*
G04 #@! TA.AperFunction,SMDPad,CuDef*
%ADD16R,6.200000X2.700000*%
G04 #@! TD*
G04 #@! TA.AperFunction,SMDPad,CuDef*
%ADD17R,5.800000X6.400000*%
G04 #@! TD*
G04 #@! TA.AperFunction,SMDPad,CuDef*
%ADD18R,1.200000X2.200000*%
G04 #@! TD*
G04 #@! TA.AperFunction,ComponentPad*
%ADD19O,1.700000X1.700000*%
G04 #@! TD*
G04 #@! TA.AperFunction,ComponentPad*
%ADD20R,1.700000X1.700000*%
G04 #@! TD*
G04 #@! TA.AperFunction,SMDPad,CuDef*
%ADD21R,1.100000X1.100000*%
G04 #@! TD*
G04 #@! TA.AperFunction,ViaPad*
%ADD22C,0.800000*%
G04 #@! TD*
G04 #@! TA.AperFunction,Conductor*
%ADD23C,0.400000*%
G04 #@! TD*
G04 #@! TA.AperFunction,Conductor*
%ADD24C,0.750000*%
G04 #@! TD*
G04 #@! TA.AperFunction,Conductor*
%ADD25C,0.254000*%
G04 #@! TD*
G04 #@! TA.AperFunction,Conductor*
%ADD26C,0.100000*%
G04 #@! TD*
G04 APERTURE END LIST*
D10*
G36*
X87500000Y-139800000D02*
G01*
X87500000Y-142300000D01*
X85500000Y-142300000D01*
X85500000Y-140800000D01*
X79600000Y-140800000D01*
X79600000Y-139800000D01*
X87500000Y-139800000D01*
G37*
G36*
X87500000Y-139200000D02*
G01*
X87500000Y-136700000D01*
X85500000Y-136700000D01*
X85500000Y-138200000D01*
X79600000Y-138200000D01*
X79600000Y-139200000D01*
X87500000Y-139200000D01*
G37*
G04 #@! TA.AperFunction,SMDPad,CuDef*
G36*
G01*
X61262500Y-148837500D02*
X61262500Y-148362500D01*
G75*
G02*
X61500000Y-148125000I237500J0D01*
G01*
X62100000Y-148125000D01*
G75*
G02*
X62337500Y-148362500I0J-237500D01*
G01*
X62337500Y-148837500D01*
G75*
G02*
X62100000Y-149075000I-237500J0D01*
G01*
X61500000Y-149075000D01*
G75*
G02*
X61262500Y-148837500I0J237500D01*
G01*
G37*
G04 #@! TD.AperFunction*
G04 #@! TA.AperFunction,SMDPad,CuDef*
G36*
G01*
X59537500Y-148837500D02*
X59537500Y-148362500D01*
G75*
G02*
X59775000Y-148125000I237500J0D01*
G01*
X60375000Y-148125000D01*
G75*
G02*
X60612500Y-148362500I0J-237500D01*
G01*
X60612500Y-148837500D01*
G75*
G02*
X60375000Y-149075000I-237500J0D01*
G01*
X59775000Y-149075000D01*
G75*
G02*
X59537500Y-148837500I0J237500D01*
G01*
G37*
G04 #@! TD.AperFunction*
G04 #@! TA.AperFunction,SMDPad,CuDef*
G36*
G01*
X63262500Y-133062500D02*
X63737500Y-133062500D01*
G75*
G02*
X63975000Y-133300000I0J-237500D01*
G01*
X63975000Y-133900000D01*
G75*
G02*
X63737500Y-134137500I-237500J0D01*
G01*
X63262500Y-134137500D01*
G75*
G02*
X63025000Y-133900000I0J237500D01*
G01*
X63025000Y-133300000D01*
G75*
G02*
X63262500Y-133062500I237500J0D01*
G01*
G37*
G04 #@! TD.AperFunction*
G04 #@! TA.AperFunction,SMDPad,CuDef*
G36*
G01*
X63262500Y-131337500D02*
X63737500Y-131337500D01*
G75*
G02*
X63975000Y-131575000I0J-237500D01*
G01*
X63975000Y-132175000D01*
G75*
G02*
X63737500Y-132412500I-237500J0D01*
G01*
X63262500Y-132412500D01*
G75*
G02*
X63025000Y-132175000I0J237500D01*
G01*
X63025000Y-131575000D01*
G75*
G02*
X63262500Y-131337500I237500J0D01*
G01*
G37*
G04 #@! TD.AperFunction*
G04 #@! TA.AperFunction,SMDPad,CuDef*
G36*
G01*
X54200000Y-129975001D02*
X54200000Y-128724999D01*
G75*
G02*
X54449999Y-128475000I249999J0D01*
G01*
X55250001Y-128475000D01*
G75*
G02*
X55500000Y-128724999I0J-249999D01*
G01*
X55500000Y-129975001D01*
G75*
G02*
X55250001Y-130225000I-249999J0D01*
G01*
X54449999Y-130225000D01*
G75*
G02*
X54200000Y-129975001I0J249999D01*
G01*
G37*
G04 #@! TD.AperFunction*
G04 #@! TA.AperFunction,SMDPad,CuDef*
G36*
G01*
X51100000Y-129975001D02*
X51100000Y-128724999D01*
G75*
G02*
X51349999Y-128475000I249999J0D01*
G01*
X52150001Y-128475000D01*
G75*
G02*
X52400000Y-128724999I0J-249999D01*
G01*
X52400000Y-129975001D01*
G75*
G02*
X52150001Y-130225000I-249999J0D01*
G01*
X51349999Y-130225000D01*
G75*
G02*
X51100000Y-129975001I0J249999D01*
G01*
G37*
G04 #@! TD.AperFunction*
D11*
X44300000Y-156000000D03*
X44300000Y-156950000D03*
X44300000Y-155050000D03*
X46500000Y-155050000D03*
X46500000Y-156000000D03*
X46500000Y-156950000D03*
D12*
X40100000Y-154700000D03*
X38100000Y-155650000D03*
X38100000Y-153750000D03*
G04 #@! TA.AperFunction,SMDPad,CuDef*
G36*
G01*
X59300000Y-144275000D02*
X59300000Y-144475000D01*
G75*
G02*
X59200000Y-144575000I-100000J0D01*
G01*
X57775000Y-144575000D01*
G75*
G02*
X57675000Y-144475000I0J100000D01*
G01*
X57675000Y-144275000D01*
G75*
G02*
X57775000Y-144175000I100000J0D01*
G01*
X59200000Y-144175000D01*
G75*
G02*
X59300000Y-144275000I0J-100000D01*
G01*
G37*
G04 #@! TD.AperFunction*
G04 #@! TA.AperFunction,SMDPad,CuDef*
G36*
G01*
X59300000Y-143625000D02*
X59300000Y-143825000D01*
G75*
G02*
X59200000Y-143925000I-100000J0D01*
G01*
X57775000Y-143925000D01*
G75*
G02*
X57675000Y-143825000I0J100000D01*
G01*
X57675000Y-143625000D01*
G75*
G02*
X57775000Y-143525000I100000J0D01*
G01*
X59200000Y-143525000D01*
G75*
G02*
X59300000Y-143625000I0J-100000D01*
G01*
G37*
G04 #@! TD.AperFunction*
G04 #@! TA.AperFunction,SMDPad,CuDef*
G36*
G01*
X59300000Y-142975000D02*
X59300000Y-143175000D01*
G75*
G02*
X59200000Y-143275000I-100000J0D01*
G01*
X57775000Y-143275000D01*
G75*
G02*
X57675000Y-143175000I0J100000D01*
G01*
X57675000Y-142975000D01*
G75*
G02*
X57775000Y-142875000I100000J0D01*
G01*
X59200000Y-142875000D01*
G75*
G02*
X59300000Y-142975000I0J-100000D01*
G01*
G37*
G04 #@! TD.AperFunction*
G04 #@! TA.AperFunction,SMDPad,CuDef*
G36*
G01*
X59300000Y-142325000D02*
X59300000Y-142525000D01*
G75*
G02*
X59200000Y-142625000I-100000J0D01*
G01*
X57775000Y-142625000D01*
G75*
G02*
X57675000Y-142525000I0J100000D01*
G01*
X57675000Y-142325000D01*
G75*
G02*
X57775000Y-142225000I100000J0D01*
G01*
X59200000Y-142225000D01*
G75*
G02*
X59300000Y-142325000I0J-100000D01*
G01*
G37*
G04 #@! TD.AperFunction*
G04 #@! TA.AperFunction,SMDPad,CuDef*
G36*
G01*
X63525000Y-142325000D02*
X63525000Y-142525000D01*
G75*
G02*
X63425000Y-142625000I-100000J0D01*
G01*
X62000000Y-142625000D01*
G75*
G02*
X61900000Y-142525000I0J100000D01*
G01*
X61900000Y-142325000D01*
G75*
G02*
X62000000Y-142225000I100000J0D01*
G01*
X63425000Y-142225000D01*
G75*
G02*
X63525000Y-142325000I0J-100000D01*
G01*
G37*
G04 #@! TD.AperFunction*
G04 #@! TA.AperFunction,SMDPad,CuDef*
G36*
G01*
X63525000Y-142975000D02*
X63525000Y-143175000D01*
G75*
G02*
X63425000Y-143275000I-100000J0D01*
G01*
X62000000Y-143275000D01*
G75*
G02*
X61900000Y-143175000I0J100000D01*
G01*
X61900000Y-142975000D01*
G75*
G02*
X62000000Y-142875000I100000J0D01*
G01*
X63425000Y-142875000D01*
G75*
G02*
X63525000Y-142975000I0J-100000D01*
G01*
G37*
G04 #@! TD.AperFunction*
G04 #@! TA.AperFunction,SMDPad,CuDef*
G36*
G01*
X63525000Y-143625000D02*
X63525000Y-143825000D01*
G75*
G02*
X63425000Y-143925000I-100000J0D01*
G01*
X62000000Y-143925000D01*
G75*
G02*
X61900000Y-143825000I0J100000D01*
G01*
X61900000Y-143625000D01*
G75*
G02*
X62000000Y-143525000I100000J0D01*
G01*
X63425000Y-143525000D01*
G75*
G02*
X63525000Y-143625000I0J-100000D01*
G01*
G37*
G04 #@! TD.AperFunction*
G04 #@! TA.AperFunction,SMDPad,CuDef*
G36*
G01*
X63525000Y-144275000D02*
X63525000Y-144475000D01*
G75*
G02*
X63425000Y-144575000I-100000J0D01*
G01*
X62000000Y-144575000D01*
G75*
G02*
X61900000Y-144475000I0J100000D01*
G01*
X61900000Y-144275000D01*
G75*
G02*
X62000000Y-144175000I100000J0D01*
G01*
X63425000Y-144175000D01*
G75*
G02*
X63525000Y-144275000I0J-100000D01*
G01*
G37*
G04 #@! TD.AperFunction*
D13*
X57000000Y-156000000D03*
G04 #@! TA.AperFunction,SMDPad,CuDef*
G36*
G01*
X58425000Y-154475000D02*
X58425000Y-154275000D01*
G75*
G02*
X58525000Y-154175000I100000J0D01*
G01*
X59775000Y-154175000D01*
G75*
G02*
X59875000Y-154275000I0J-100000D01*
G01*
X59875000Y-154475000D01*
G75*
G02*
X59775000Y-154575000I-100000J0D01*
G01*
X58525000Y-154575000D01*
G75*
G02*
X58425000Y-154475000I0J100000D01*
G01*
G37*
G04 #@! TD.AperFunction*
G04 #@! TA.AperFunction,SMDPad,CuDef*
G36*
G01*
X58425000Y-155125000D02*
X58425000Y-154925000D01*
G75*
G02*
X58525000Y-154825000I100000J0D01*
G01*
X59775000Y-154825000D01*
G75*
G02*
X59875000Y-154925000I0J-100000D01*
G01*
X59875000Y-155125000D01*
G75*
G02*
X59775000Y-155225000I-100000J0D01*
G01*
X58525000Y-155225000D01*
G75*
G02*
X58425000Y-155125000I0J100000D01*
G01*
G37*
G04 #@! TD.AperFunction*
G04 #@! TA.AperFunction,SMDPad,CuDef*
G36*
G01*
X58425000Y-155775000D02*
X58425000Y-155575000D01*
G75*
G02*
X58525000Y-155475000I100000J0D01*
G01*
X59775000Y-155475000D01*
G75*
G02*
X59875000Y-155575000I0J-100000D01*
G01*
X59875000Y-155775000D01*
G75*
G02*
X59775000Y-155875000I-100000J0D01*
G01*
X58525000Y-155875000D01*
G75*
G02*
X58425000Y-155775000I0J100000D01*
G01*
G37*
G04 #@! TD.AperFunction*
G04 #@! TA.AperFunction,SMDPad,CuDef*
G36*
G01*
X58425000Y-156425000D02*
X58425000Y-156225000D01*
G75*
G02*
X58525000Y-156125000I100000J0D01*
G01*
X59775000Y-156125000D01*
G75*
G02*
X59875000Y-156225000I0J-100000D01*
G01*
X59875000Y-156425000D01*
G75*
G02*
X59775000Y-156525000I-100000J0D01*
G01*
X58525000Y-156525000D01*
G75*
G02*
X58425000Y-156425000I0J100000D01*
G01*
G37*
G04 #@! TD.AperFunction*
G04 #@! TA.AperFunction,SMDPad,CuDef*
G36*
G01*
X58425000Y-157075000D02*
X58425000Y-156875000D01*
G75*
G02*
X58525000Y-156775000I100000J0D01*
G01*
X59775000Y-156775000D01*
G75*
G02*
X59875000Y-156875000I0J-100000D01*
G01*
X59875000Y-157075000D01*
G75*
G02*
X59775000Y-157175000I-100000J0D01*
G01*
X58525000Y-157175000D01*
G75*
G02*
X58425000Y-157075000I0J100000D01*
G01*
G37*
G04 #@! TD.AperFunction*
G04 #@! TA.AperFunction,SMDPad,CuDef*
G36*
G01*
X58425000Y-157725000D02*
X58425000Y-157525000D01*
G75*
G02*
X58525000Y-157425000I100000J0D01*
G01*
X59775000Y-157425000D01*
G75*
G02*
X59875000Y-157525000I0J-100000D01*
G01*
X59875000Y-157725000D01*
G75*
G02*
X59775000Y-157825000I-100000J0D01*
G01*
X58525000Y-157825000D01*
G75*
G02*
X58425000Y-157725000I0J100000D01*
G01*
G37*
G04 #@! TD.AperFunction*
G04 #@! TA.AperFunction,SMDPad,CuDef*
G36*
G01*
X54125000Y-157725000D02*
X54125000Y-157525000D01*
G75*
G02*
X54225000Y-157425000I100000J0D01*
G01*
X55475000Y-157425000D01*
G75*
G02*
X55575000Y-157525000I0J-100000D01*
G01*
X55575000Y-157725000D01*
G75*
G02*
X55475000Y-157825000I-100000J0D01*
G01*
X54225000Y-157825000D01*
G75*
G02*
X54125000Y-157725000I0J100000D01*
G01*
G37*
G04 #@! TD.AperFunction*
G04 #@! TA.AperFunction,SMDPad,CuDef*
G36*
G01*
X54125000Y-157075000D02*
X54125000Y-156875000D01*
G75*
G02*
X54225000Y-156775000I100000J0D01*
G01*
X55475000Y-156775000D01*
G75*
G02*
X55575000Y-156875000I0J-100000D01*
G01*
X55575000Y-157075000D01*
G75*
G02*
X55475000Y-157175000I-100000J0D01*
G01*
X54225000Y-157175000D01*
G75*
G02*
X54125000Y-157075000I0J100000D01*
G01*
G37*
G04 #@! TD.AperFunction*
G04 #@! TA.AperFunction,SMDPad,CuDef*
G36*
G01*
X54125000Y-156425000D02*
X54125000Y-156225000D01*
G75*
G02*
X54225000Y-156125000I100000J0D01*
G01*
X55475000Y-156125000D01*
G75*
G02*
X55575000Y-156225000I0J-100000D01*
G01*
X55575000Y-156425000D01*
G75*
G02*
X55475000Y-156525000I-100000J0D01*
G01*
X54225000Y-156525000D01*
G75*
G02*
X54125000Y-156425000I0J100000D01*
G01*
G37*
G04 #@! TD.AperFunction*
G04 #@! TA.AperFunction,SMDPad,CuDef*
G36*
G01*
X54125000Y-155775000D02*
X54125000Y-155575000D01*
G75*
G02*
X54225000Y-155475000I100000J0D01*
G01*
X55475000Y-155475000D01*
G75*
G02*
X55575000Y-155575000I0J-100000D01*
G01*
X55575000Y-155775000D01*
G75*
G02*
X55475000Y-155875000I-100000J0D01*
G01*
X54225000Y-155875000D01*
G75*
G02*
X54125000Y-155775000I0J100000D01*
G01*
G37*
G04 #@! TD.AperFunction*
G04 #@! TA.AperFunction,SMDPad,CuDef*
G36*
G01*
X54125000Y-155125000D02*
X54125000Y-154925000D01*
G75*
G02*
X54225000Y-154825000I100000J0D01*
G01*
X55475000Y-154825000D01*
G75*
G02*
X55575000Y-154925000I0J-100000D01*
G01*
X55575000Y-155125000D01*
G75*
G02*
X55475000Y-155225000I-100000J0D01*
G01*
X54225000Y-155225000D01*
G75*
G02*
X54125000Y-155125000I0J100000D01*
G01*
G37*
G04 #@! TD.AperFunction*
G04 #@! TA.AperFunction,SMDPad,CuDef*
G36*
G01*
X54125000Y-154475000D02*
X54125000Y-154275000D01*
G75*
G02*
X54225000Y-154175000I100000J0D01*
G01*
X55475000Y-154175000D01*
G75*
G02*
X55575000Y-154275000I0J-100000D01*
G01*
X55575000Y-154475000D01*
G75*
G02*
X55475000Y-154575000I-100000J0D01*
G01*
X54225000Y-154575000D01*
G75*
G02*
X54125000Y-154475000I0J100000D01*
G01*
G37*
G04 #@! TD.AperFunction*
X57200000Y-133300000D03*
G04 #@! TA.AperFunction,SMDPad,CuDef*
G36*
G01*
X58625000Y-131775000D02*
X58625000Y-131575000D01*
G75*
G02*
X58725000Y-131475000I100000J0D01*
G01*
X59975000Y-131475000D01*
G75*
G02*
X60075000Y-131575000I0J-100000D01*
G01*
X60075000Y-131775000D01*
G75*
G02*
X59975000Y-131875000I-100000J0D01*
G01*
X58725000Y-131875000D01*
G75*
G02*
X58625000Y-131775000I0J100000D01*
G01*
G37*
G04 #@! TD.AperFunction*
G04 #@! TA.AperFunction,SMDPad,CuDef*
G36*
G01*
X58625000Y-132425000D02*
X58625000Y-132225000D01*
G75*
G02*
X58725000Y-132125000I100000J0D01*
G01*
X59975000Y-132125000D01*
G75*
G02*
X60075000Y-132225000I0J-100000D01*
G01*
X60075000Y-132425000D01*
G75*
G02*
X59975000Y-132525000I-100000J0D01*
G01*
X58725000Y-132525000D01*
G75*
G02*
X58625000Y-132425000I0J100000D01*
G01*
G37*
G04 #@! TD.AperFunction*
G04 #@! TA.AperFunction,SMDPad,CuDef*
G36*
G01*
X58625000Y-133075000D02*
X58625000Y-132875000D01*
G75*
G02*
X58725000Y-132775000I100000J0D01*
G01*
X59975000Y-132775000D01*
G75*
G02*
X60075000Y-132875000I0J-100000D01*
G01*
X60075000Y-133075000D01*
G75*
G02*
X59975000Y-133175000I-100000J0D01*
G01*
X58725000Y-133175000D01*
G75*
G02*
X58625000Y-133075000I0J100000D01*
G01*
G37*
G04 #@! TD.AperFunction*
G04 #@! TA.AperFunction,SMDPad,CuDef*
G36*
G01*
X58625000Y-133725000D02*
X58625000Y-133525000D01*
G75*
G02*
X58725000Y-133425000I100000J0D01*
G01*
X59975000Y-133425000D01*
G75*
G02*
X60075000Y-133525000I0J-100000D01*
G01*
X60075000Y-133725000D01*
G75*
G02*
X59975000Y-133825000I-100000J0D01*
G01*
X58725000Y-133825000D01*
G75*
G02*
X58625000Y-133725000I0J100000D01*
G01*
G37*
G04 #@! TD.AperFunction*
G04 #@! TA.AperFunction,SMDPad,CuDef*
G36*
G01*
X58625000Y-134375000D02*
X58625000Y-134175000D01*
G75*
G02*
X58725000Y-134075000I100000J0D01*
G01*
X59975000Y-134075000D01*
G75*
G02*
X60075000Y-134175000I0J-100000D01*
G01*
X60075000Y-134375000D01*
G75*
G02*
X59975000Y-134475000I-100000J0D01*
G01*
X58725000Y-134475000D01*
G75*
G02*
X58625000Y-134375000I0J100000D01*
G01*
G37*
G04 #@! TD.AperFunction*
G04 #@! TA.AperFunction,SMDPad,CuDef*
G36*
G01*
X58625000Y-135025000D02*
X58625000Y-134825000D01*
G75*
G02*
X58725000Y-134725000I100000J0D01*
G01*
X59975000Y-134725000D01*
G75*
G02*
X60075000Y-134825000I0J-100000D01*
G01*
X60075000Y-135025000D01*
G75*
G02*
X59975000Y-135125000I-100000J0D01*
G01*
X58725000Y-135125000D01*
G75*
G02*
X58625000Y-135025000I0J100000D01*
G01*
G37*
G04 #@! TD.AperFunction*
G04 #@! TA.AperFunction,SMDPad,CuDef*
G36*
G01*
X54325000Y-135025000D02*
X54325000Y-134825000D01*
G75*
G02*
X54425000Y-134725000I100000J0D01*
G01*
X55675000Y-134725000D01*
G75*
G02*
X55775000Y-134825000I0J-100000D01*
G01*
X55775000Y-135025000D01*
G75*
G02*
X55675000Y-135125000I-100000J0D01*
G01*
X54425000Y-135125000D01*
G75*
G02*
X54325000Y-135025000I0J100000D01*
G01*
G37*
G04 #@! TD.AperFunction*
G04 #@! TA.AperFunction,SMDPad,CuDef*
G36*
G01*
X54325000Y-134375000D02*
X54325000Y-134175000D01*
G75*
G02*
X54425000Y-134075000I100000J0D01*
G01*
X55675000Y-134075000D01*
G75*
G02*
X55775000Y-134175000I0J-100000D01*
G01*
X55775000Y-134375000D01*
G75*
G02*
X55675000Y-134475000I-100000J0D01*
G01*
X54425000Y-134475000D01*
G75*
G02*
X54325000Y-134375000I0J100000D01*
G01*
G37*
G04 #@! TD.AperFunction*
G04 #@! TA.AperFunction,SMDPad,CuDef*
G36*
G01*
X54325000Y-133725000D02*
X54325000Y-133525000D01*
G75*
G02*
X54425000Y-133425000I100000J0D01*
G01*
X55675000Y-133425000D01*
G75*
G02*
X55775000Y-133525000I0J-100000D01*
G01*
X55775000Y-133725000D01*
G75*
G02*
X55675000Y-133825000I-100000J0D01*
G01*
X54425000Y-133825000D01*
G75*
G02*
X54325000Y-133725000I0J100000D01*
G01*
G37*
G04 #@! TD.AperFunction*
G04 #@! TA.AperFunction,SMDPad,CuDef*
G36*
G01*
X54325000Y-133075000D02*
X54325000Y-132875000D01*
G75*
G02*
X54425000Y-132775000I100000J0D01*
G01*
X55675000Y-132775000D01*
G75*
G02*
X55775000Y-132875000I0J-100000D01*
G01*
X55775000Y-133075000D01*
G75*
G02*
X55675000Y-133175000I-100000J0D01*
G01*
X54425000Y-133175000D01*
G75*
G02*
X54325000Y-133075000I0J100000D01*
G01*
G37*
G04 #@! TD.AperFunction*
G04 #@! TA.AperFunction,SMDPad,CuDef*
G36*
G01*
X54325000Y-132425000D02*
X54325000Y-132225000D01*
G75*
G02*
X54425000Y-132125000I100000J0D01*
G01*
X55675000Y-132125000D01*
G75*
G02*
X55775000Y-132225000I0J-100000D01*
G01*
X55775000Y-132425000D01*
G75*
G02*
X55675000Y-132525000I-100000J0D01*
G01*
X54425000Y-132525000D01*
G75*
G02*
X54325000Y-132425000I0J100000D01*
G01*
G37*
G04 #@! TD.AperFunction*
G04 #@! TA.AperFunction,SMDPad,CuDef*
G36*
G01*
X54325000Y-131775000D02*
X54325000Y-131575000D01*
G75*
G02*
X54425000Y-131475000I100000J0D01*
G01*
X55675000Y-131475000D01*
G75*
G02*
X55775000Y-131575000I0J-100000D01*
G01*
X55775000Y-131775000D01*
G75*
G02*
X55675000Y-131875000I-100000J0D01*
G01*
X54425000Y-131875000D01*
G75*
G02*
X54325000Y-131775000I0J100000D01*
G01*
G37*
G04 #@! TD.AperFunction*
D14*
X29700000Y-127200000D03*
X29700000Y-156200000D03*
X29700000Y-134200000D03*
X87500000Y-155500000D03*
X87500000Y-149000000D03*
D15*
X79100000Y-138700000D03*
X79100000Y-140300000D03*
D16*
X87500000Y-135350000D03*
X87500000Y-143650000D03*
G04 #@! TA.AperFunction,SMDPad,CuDef*
G36*
G01*
X69850000Y-145625001D02*
X69850000Y-144374999D01*
G75*
G02*
X70099999Y-144125000I249999J0D01*
G01*
X70900001Y-144125000D01*
G75*
G02*
X71150000Y-144374999I0J-249999D01*
G01*
X71150000Y-145625001D01*
G75*
G02*
X70900001Y-145875000I-249999J0D01*
G01*
X70099999Y-145875000D01*
G75*
G02*
X69850000Y-145625001I0J249999D01*
G01*
G37*
G04 #@! TD.AperFunction*
G04 #@! TA.AperFunction,SMDPad,CuDef*
G36*
G01*
X66750000Y-145625001D02*
X66750000Y-144374999D01*
G75*
G02*
X66999999Y-144125000I249999J0D01*
G01*
X67800001Y-144125000D01*
G75*
G02*
X68050000Y-144374999I0J-249999D01*
G01*
X68050000Y-145625001D01*
G75*
G02*
X67800001Y-145875000I-249999J0D01*
G01*
X66999999Y-145875000D01*
G75*
G02*
X66750000Y-145625001I0J249999D01*
G01*
G37*
G04 #@! TD.AperFunction*
G04 #@! TA.AperFunction,SMDPad,CuDef*
G36*
G01*
X69850000Y-141625001D02*
X69850000Y-140374999D01*
G75*
G02*
X70099999Y-140125000I249999J0D01*
G01*
X70900001Y-140125000D01*
G75*
G02*
X71150000Y-140374999I0J-249999D01*
G01*
X71150000Y-141625001D01*
G75*
G02*
X70900001Y-141875000I-249999J0D01*
G01*
X70099999Y-141875000D01*
G75*
G02*
X69850000Y-141625001I0J249999D01*
G01*
G37*
G04 #@! TD.AperFunction*
G04 #@! TA.AperFunction,SMDPad,CuDef*
G36*
G01*
X66750000Y-141625001D02*
X66750000Y-140374999D01*
G75*
G02*
X66999999Y-140125000I249999J0D01*
G01*
X67800001Y-140125000D01*
G75*
G02*
X68050000Y-140374999I0J-249999D01*
G01*
X68050000Y-141625001D01*
G75*
G02*
X67800001Y-141875000I-249999J0D01*
G01*
X66999999Y-141875000D01*
G75*
G02*
X66750000Y-141625001I0J249999D01*
G01*
G37*
G04 #@! TD.AperFunction*
G04 #@! TA.AperFunction,SMDPad,CuDef*
G36*
G01*
X75850000Y-141625001D02*
X75850000Y-140374999D01*
G75*
G02*
X76099999Y-140125000I249999J0D01*
G01*
X76900001Y-140125000D01*
G75*
G02*
X77150000Y-140374999I0J-249999D01*
G01*
X77150000Y-141625001D01*
G75*
G02*
X76900001Y-141875000I-249999J0D01*
G01*
X76099999Y-141875000D01*
G75*
G02*
X75850000Y-141625001I0J249999D01*
G01*
G37*
G04 #@! TD.AperFunction*
G04 #@! TA.AperFunction,SMDPad,CuDef*
G36*
G01*
X72750000Y-141625001D02*
X72750000Y-140374999D01*
G75*
G02*
X72999999Y-140125000I249999J0D01*
G01*
X73800001Y-140125000D01*
G75*
G02*
X74050000Y-140374999I0J-249999D01*
G01*
X74050000Y-141625001D01*
G75*
G02*
X73800001Y-141875000I-249999J0D01*
G01*
X72999999Y-141875000D01*
G75*
G02*
X72750000Y-141625001I0J249999D01*
G01*
G37*
G04 #@! TD.AperFunction*
G04 #@! TA.AperFunction,SMDPad,CuDef*
G36*
G01*
X75850000Y-145625001D02*
X75850000Y-144374999D01*
G75*
G02*
X76099999Y-144125000I249999J0D01*
G01*
X76900001Y-144125000D01*
G75*
G02*
X77150000Y-144374999I0J-249999D01*
G01*
X77150000Y-145625001D01*
G75*
G02*
X76900001Y-145875000I-249999J0D01*
G01*
X76099999Y-145875000D01*
G75*
G02*
X75850000Y-145625001I0J249999D01*
G01*
G37*
G04 #@! TD.AperFunction*
G04 #@! TA.AperFunction,SMDPad,CuDef*
G36*
G01*
X72750000Y-145625001D02*
X72750000Y-144374999D01*
G75*
G02*
X72999999Y-144125000I249999J0D01*
G01*
X73800001Y-144125000D01*
G75*
G02*
X74050000Y-144374999I0J-249999D01*
G01*
X74050000Y-145625001D01*
G75*
G02*
X73800001Y-145875000I-249999J0D01*
G01*
X72999999Y-145875000D01*
G75*
G02*
X72750000Y-145625001I0J249999D01*
G01*
G37*
G04 #@! TD.AperFunction*
G04 #@! TA.AperFunction,SMDPad,CuDef*
G36*
G01*
X54450000Y-142525001D02*
X54450000Y-141274999D01*
G75*
G02*
X54699999Y-141025000I249999J0D01*
G01*
X55500001Y-141025000D01*
G75*
G02*
X55750000Y-141274999I0J-249999D01*
G01*
X55750000Y-142525001D01*
G75*
G02*
X55500001Y-142775000I-249999J0D01*
G01*
X54699999Y-142775000D01*
G75*
G02*
X54450000Y-142525001I0J249999D01*
G01*
G37*
G04 #@! TD.AperFunction*
G04 #@! TA.AperFunction,SMDPad,CuDef*
G36*
G01*
X51350000Y-142525001D02*
X51350000Y-141274999D01*
G75*
G02*
X51599999Y-141025000I249999J0D01*
G01*
X52400001Y-141025000D01*
G75*
G02*
X52650000Y-141274999I0J-249999D01*
G01*
X52650000Y-142525001D01*
G75*
G02*
X52400001Y-142775000I-249999J0D01*
G01*
X51599999Y-142775000D01*
G75*
G02*
X51350000Y-142525001I0J249999D01*
G01*
G37*
G04 #@! TD.AperFunction*
G04 #@! TA.AperFunction,SMDPad,CuDef*
G36*
G01*
X52650000Y-144274999D02*
X52650000Y-145525001D01*
G75*
G02*
X52400001Y-145775000I-249999J0D01*
G01*
X51599999Y-145775000D01*
G75*
G02*
X51350000Y-145525001I0J249999D01*
G01*
X51350000Y-144274999D01*
G75*
G02*
X51599999Y-144025000I249999J0D01*
G01*
X52400001Y-144025000D01*
G75*
G02*
X52650000Y-144274999I0J-249999D01*
G01*
G37*
G04 #@! TD.AperFunction*
G04 #@! TA.AperFunction,SMDPad,CuDef*
G36*
G01*
X55750000Y-144274999D02*
X55750000Y-145525001D01*
G75*
G02*
X55500001Y-145775000I-249999J0D01*
G01*
X54699999Y-145775000D01*
G75*
G02*
X54450000Y-145525001I0J249999D01*
G01*
X54450000Y-144274999D01*
G75*
G02*
X54699999Y-144025000I249999J0D01*
G01*
X55500001Y-144025000D01*
G75*
G02*
X55750000Y-144274999I0J-249999D01*
G01*
G37*
G04 #@! TD.AperFunction*
G04 #@! TA.AperFunction,SMDPad,CuDef*
G36*
G01*
X54200000Y-152625001D02*
X54200000Y-151374999D01*
G75*
G02*
X54449999Y-151125000I249999J0D01*
G01*
X55250001Y-151125000D01*
G75*
G02*
X55500000Y-151374999I0J-249999D01*
G01*
X55500000Y-152625001D01*
G75*
G02*
X55250001Y-152875000I-249999J0D01*
G01*
X54449999Y-152875000D01*
G75*
G02*
X54200000Y-152625001I0J249999D01*
G01*
G37*
G04 #@! TD.AperFunction*
G04 #@! TA.AperFunction,SMDPad,CuDef*
G36*
G01*
X51100000Y-152625001D02*
X51100000Y-151374999D01*
G75*
G02*
X51349999Y-151125000I249999J0D01*
G01*
X52150001Y-151125000D01*
G75*
G02*
X52400000Y-151374999I0J-249999D01*
G01*
X52400000Y-152625001D01*
G75*
G02*
X52150001Y-152875000I-249999J0D01*
G01*
X51349999Y-152875000D01*
G75*
G02*
X51100000Y-152625001I0J249999D01*
G01*
G37*
G04 #@! TD.AperFunction*
D17*
X78500000Y-156100000D03*
D18*
X76220000Y-149800000D03*
X80780000Y-149800000D03*
D17*
X69000000Y-156100000D03*
D18*
X66720000Y-149800000D03*
X71280000Y-149800000D03*
D17*
X78500000Y-129175000D03*
D18*
X80780000Y-135475000D03*
X76220000Y-135475000D03*
D17*
X69025000Y-129175000D03*
D18*
X71305000Y-135475000D03*
X66745000Y-135475000D03*
D19*
X29700000Y-149320000D03*
X29700000Y-146780000D03*
X29700000Y-144240000D03*
D20*
X29700000Y-141700000D03*
D21*
X59100000Y-151000000D03*
X61900000Y-151000000D03*
X60300000Y-129300000D03*
X63100000Y-129300000D03*
G04 #@! TA.AperFunction,SMDPad,CuDef*
G36*
G01*
X39287500Y-158437500D02*
X39287500Y-157962500D01*
G75*
G02*
X39525000Y-157725000I237500J0D01*
G01*
X40125000Y-157725000D01*
G75*
G02*
X40362500Y-157962500I0J-237500D01*
G01*
X40362500Y-158437500D01*
G75*
G02*
X40125000Y-158675000I-237500J0D01*
G01*
X39525000Y-158675000D01*
G75*
G02*
X39287500Y-158437500I0J237500D01*
G01*
G37*
G04 #@! TD.AperFunction*
G04 #@! TA.AperFunction,SMDPad,CuDef*
G36*
G01*
X37562500Y-158437500D02*
X37562500Y-157962500D01*
G75*
G02*
X37800000Y-157725000I237500J0D01*
G01*
X38400000Y-157725000D01*
G75*
G02*
X38637500Y-157962500I0J-237500D01*
G01*
X38637500Y-158437500D01*
G75*
G02*
X38400000Y-158675000I-237500J0D01*
G01*
X37800000Y-158675000D01*
G75*
G02*
X37562500Y-158437500I0J237500D01*
G01*
G37*
G04 #@! TD.AperFunction*
G04 #@! TA.AperFunction,SMDPad,CuDef*
G36*
G01*
X44850000Y-149700000D02*
X45950000Y-149700000D01*
G75*
G02*
X46200000Y-149950000I0J-250000D01*
G01*
X46200000Y-152050000D01*
G75*
G02*
X45950000Y-152300000I-250000J0D01*
G01*
X44850000Y-152300000D01*
G75*
G02*
X44600000Y-152050000I0J250000D01*
G01*
X44600000Y-149950000D01*
G75*
G02*
X44850000Y-149700000I250000J0D01*
G01*
G37*
G04 #@! TD.AperFunction*
G04 #@! TA.AperFunction,SMDPad,CuDef*
G36*
G01*
X44850000Y-146100000D02*
X45950000Y-146100000D01*
G75*
G02*
X46200000Y-146350000I0J-250000D01*
G01*
X46200000Y-148450000D01*
G75*
G02*
X45950000Y-148700000I-250000J0D01*
G01*
X44850000Y-148700000D01*
G75*
G02*
X44600000Y-148450000I0J250000D01*
G01*
X44600000Y-146350000D01*
G75*
G02*
X44850000Y-146100000I250000J0D01*
G01*
G37*
G04 #@! TD.AperFunction*
G04 #@! TA.AperFunction,SMDPad,CuDef*
G36*
G01*
X36599997Y-136300000D02*
X45700003Y-136300000D01*
G75*
G02*
X45950000Y-136549997I0J-249997D01*
G01*
X45950000Y-143850003D01*
G75*
G02*
X45700003Y-144100000I-249997J0D01*
G01*
X36599997Y-144100000D01*
G75*
G02*
X36350000Y-143850003I0J249997D01*
G01*
X36350000Y-136549997D01*
G75*
G02*
X36599997Y-136300000I249997J0D01*
G01*
G37*
G04 #@! TD.AperFunction*
G04 #@! TA.AperFunction,SMDPad,CuDef*
G36*
G01*
X36599997Y-123800000D02*
X45700003Y-123800000D01*
G75*
G02*
X45950000Y-124049997I0J-249997D01*
G01*
X45950000Y-131350003D01*
G75*
G02*
X45700003Y-131600000I-249997J0D01*
G01*
X36599997Y-131600000D01*
G75*
G02*
X36350000Y-131350003I0J249997D01*
G01*
X36350000Y-124049997D01*
G75*
G02*
X36599997Y-123800000I249997J0D01*
G01*
G37*
G04 #@! TD.AperFunction*
G04 #@! TA.AperFunction,SMDPad,CuDef*
G36*
G01*
X60887500Y-139637500D02*
X60887500Y-139162500D01*
G75*
G02*
X61125000Y-138925000I237500J0D01*
G01*
X61725000Y-138925000D01*
G75*
G02*
X61962500Y-139162500I0J-237500D01*
G01*
X61962500Y-139637500D01*
G75*
G02*
X61725000Y-139875000I-237500J0D01*
G01*
X61125000Y-139875000D01*
G75*
G02*
X60887500Y-139637500I0J237500D01*
G01*
G37*
G04 #@! TD.AperFunction*
G04 #@! TA.AperFunction,SMDPad,CuDef*
G36*
G01*
X59162500Y-139637500D02*
X59162500Y-139162500D01*
G75*
G02*
X59400000Y-138925000I237500J0D01*
G01*
X60000000Y-138925000D01*
G75*
G02*
X60237500Y-139162500I0J-237500D01*
G01*
X60237500Y-139637500D01*
G75*
G02*
X60000000Y-139875000I-237500J0D01*
G01*
X59400000Y-139875000D01*
G75*
G02*
X59162500Y-139637500I0J237500D01*
G01*
G37*
G04 #@! TD.AperFunction*
D22*
X57350000Y-156950000D03*
X56600000Y-155000000D03*
X57550000Y-134250000D03*
X56800000Y-132350000D03*
X59500000Y-136000000D03*
X61000000Y-155500000D03*
X62750000Y-139500000D03*
X64500000Y-142250000D03*
X48250000Y-156000000D03*
X41500000Y-154750000D03*
X47000000Y-151000000D03*
X43750000Y-151000000D03*
X45540686Y-152959314D03*
X82000000Y-135500000D03*
X80750000Y-133750000D03*
X79500000Y-135500000D03*
X80750000Y-137250000D03*
X82000000Y-137250000D03*
X79500000Y-137250000D03*
X79500000Y-133750000D03*
X82000000Y-133750000D03*
X76250000Y-151500000D03*
X75000000Y-149750000D03*
X77500000Y-149750000D03*
X77500000Y-151500000D03*
X76250000Y-148000000D03*
X75000000Y-148000000D03*
X77500000Y-148000000D03*
X37250000Y-135500000D03*
X38250000Y-135500000D03*
X39250000Y-135500000D03*
X40250000Y-135500000D03*
X41250000Y-135500000D03*
X42250000Y-135500000D03*
X43250000Y-135500000D03*
X44250000Y-135500000D03*
X45250000Y-135500000D03*
X55250000Y-140000000D03*
X36800000Y-158000000D03*
X75000000Y-151500000D03*
X44500000Y-145250000D03*
X47750000Y-145250000D03*
X56750000Y-145250000D03*
X58500000Y-139750000D03*
X66750000Y-130000000D03*
X69000000Y-130000000D03*
X69000000Y-128250000D03*
X69000000Y-126500000D03*
X71250000Y-126500000D03*
X71250000Y-128250000D03*
X71250000Y-130000000D03*
X71250000Y-131750000D03*
X69000000Y-131750000D03*
X66750000Y-131750000D03*
X66750000Y-128250000D03*
X66750000Y-126500000D03*
X71250000Y-158500000D03*
X71250000Y-156750000D03*
X69000000Y-158500000D03*
X69000000Y-156750000D03*
X66750000Y-158500000D03*
X66750000Y-156750000D03*
X69000000Y-155000000D03*
X69000000Y-153500000D03*
X66750000Y-155000000D03*
X71250000Y-155000000D03*
X71250000Y-153500000D03*
X66750000Y-153500000D03*
X53000000Y-131900000D03*
X52600000Y-154750000D03*
X52650000Y-156950000D03*
X53000000Y-134200000D03*
X39500000Y-152500000D03*
X39500000Y-150700000D03*
X48750000Y-148750000D03*
X34780005Y-146780005D03*
X49247941Y-147250000D03*
X42750000Y-156000000D03*
X53500000Y-153750000D03*
X54000000Y-131000000D03*
X63100000Y-148600000D03*
X65000000Y-150300000D03*
D23*
X56875000Y-133625000D02*
X57200000Y-133300000D01*
X55050000Y-133625000D02*
X56875000Y-133625000D01*
X57325000Y-155675000D02*
X57000000Y-156000000D01*
X59150000Y-155675000D02*
X57325000Y-155675000D01*
X56675000Y-156325000D02*
X57000000Y-156000000D01*
X54850000Y-156325000D02*
X56675000Y-156325000D01*
X58225000Y-134925000D02*
X57550000Y-134250000D01*
X59350000Y-134925000D02*
X58225000Y-134925000D01*
X59350000Y-135850000D02*
X59500000Y-136000000D01*
X59350000Y-134925000D02*
X59350000Y-135850000D01*
X60825000Y-155675000D02*
X61000000Y-155500000D01*
X59150000Y-155675000D02*
X60825000Y-155675000D01*
X62650000Y-139400000D02*
X62750000Y-139500000D01*
X61425000Y-139400000D02*
X62650000Y-139400000D01*
X64325000Y-142425000D02*
X64500000Y-142250000D01*
X62712500Y-142425000D02*
X64325000Y-142425000D01*
X46500000Y-156000000D02*
X48250000Y-156000000D01*
X41450000Y-154700000D02*
X41500000Y-154750000D01*
X40100000Y-154700000D02*
X41450000Y-154700000D01*
X45400000Y-151000000D02*
X47000000Y-151000000D01*
X45400000Y-151000000D02*
X43750000Y-151000000D01*
X45400000Y-152818628D02*
X45540686Y-152959314D01*
X45400000Y-151000000D02*
X45400000Y-152818628D01*
X55100000Y-140150000D02*
X55250000Y-140000000D01*
X55100000Y-141900000D02*
X55100000Y-140150000D01*
X37000000Y-158200000D02*
X36800000Y-158000000D01*
X38100000Y-158200000D02*
X37000000Y-158200000D01*
X46500000Y-154500000D02*
X46500000Y-155050000D01*
X46000000Y-154000000D02*
X46500000Y-154500000D01*
X43250000Y-154000000D02*
X46000000Y-154000000D01*
X40750000Y-151500000D02*
X43250000Y-154000000D01*
X37500000Y-151500000D02*
X40750000Y-151500000D01*
X36750000Y-150750000D02*
X37500000Y-151500000D01*
X36750000Y-145250000D02*
X36750000Y-150750000D01*
X33200000Y-141700000D02*
X36750000Y-145250000D01*
X29700000Y-141700000D02*
X33200000Y-141700000D01*
X55625000Y-144375000D02*
X55100000Y-144900000D01*
X58487500Y-144375000D02*
X55625000Y-144375000D01*
X36750000Y-145250000D02*
X44500000Y-145250000D01*
X53824990Y-146175010D02*
X55100000Y-144900000D01*
X48675010Y-146175010D02*
X53824990Y-146175010D01*
X47750000Y-145250000D02*
X48675010Y-146175010D01*
X56400000Y-144900000D02*
X56750000Y-145250000D01*
X55100000Y-144900000D02*
X56400000Y-144900000D01*
X59350000Y-139750000D02*
X59700000Y-139400000D01*
X58500000Y-139750000D02*
X59350000Y-139750000D01*
D24*
X53399990Y-127899990D02*
X54850000Y-129350000D01*
X51008266Y-127899990D02*
X53399990Y-127899990D01*
X50524990Y-128383266D02*
X51008266Y-127899990D01*
X45400000Y-146100000D02*
X50524990Y-140975010D01*
X45400000Y-147400000D02*
X45400000Y-146100000D01*
X60250000Y-129350000D02*
X60300000Y-129300000D01*
X54850000Y-129350000D02*
X60250000Y-129350000D01*
D23*
X55050000Y-132325000D02*
X53425000Y-132325000D01*
X53425000Y-132325000D02*
X53000000Y-131900000D01*
X52875000Y-155025000D02*
X52600000Y-154750000D01*
X54850000Y-155025000D02*
X52875000Y-155025000D01*
X52675000Y-156975000D02*
X52650000Y-156950000D01*
X54850000Y-156975000D02*
X52675000Y-156975000D01*
X53325000Y-157625000D02*
X52650000Y-156950000D01*
X54850000Y-157625000D02*
X53325000Y-157625000D01*
X53075000Y-134275000D02*
X53000000Y-134200000D01*
X55050000Y-134275000D02*
X53075000Y-134275000D01*
X53725000Y-134925000D02*
X53000000Y-134200000D01*
X55050000Y-134925000D02*
X53725000Y-134925000D01*
D24*
X58100000Y-152000000D02*
X59100000Y-151000000D01*
X54850000Y-152000000D02*
X58100000Y-152000000D01*
D23*
X38250000Y-153750000D02*
X39500000Y-152500000D01*
X38100000Y-153750000D02*
X38250000Y-153750000D01*
X41600000Y-147400000D02*
X45400000Y-147400000D01*
X39500000Y-149500000D02*
X41600000Y-147400000D01*
X39500000Y-150700000D02*
X39500000Y-149500000D01*
D24*
X30674990Y-133225010D02*
X29700000Y-134200000D01*
X50524990Y-140975010D02*
X50524990Y-133225010D01*
X50524990Y-133225010D02*
X30674990Y-133225010D01*
X50524990Y-133225010D02*
X50524990Y-128383266D01*
X47400000Y-147400000D02*
X48750000Y-148750000D01*
X45400000Y-147400000D02*
X47400000Y-147400000D01*
X50250000Y-148750000D02*
X48750000Y-148750000D01*
X51500000Y-148750000D02*
X50250000Y-148750000D01*
X54750000Y-152000000D02*
X51500000Y-148750000D01*
X54850000Y-152000000D02*
X54750000Y-152000000D01*
D23*
X43050000Y-158200000D02*
X44300000Y-156950000D01*
X39825000Y-158200000D02*
X43050000Y-158200000D01*
X38100000Y-156475000D02*
X39825000Y-158200000D01*
X38100000Y-155650000D02*
X38100000Y-156475000D01*
X44925002Y-156950000D02*
X44300000Y-156950000D01*
X45230001Y-156645001D02*
X44925002Y-156950000D01*
X45230001Y-155354999D02*
X45230001Y-156645001D01*
X44925002Y-155050000D02*
X45230001Y-155354999D01*
X44300000Y-155050000D02*
X44925002Y-155050000D01*
X60725000Y-131675000D02*
X59350000Y-131675000D01*
X63100000Y-129300000D02*
X60725000Y-131675000D01*
X61900000Y-151625000D02*
X59150000Y-154375000D01*
X61900000Y-151000000D02*
X61900000Y-151625000D01*
X66775000Y-144375000D02*
X67400000Y-145000000D01*
X62712500Y-144375000D02*
X66775000Y-144375000D01*
X29700000Y-146780000D02*
X34780000Y-146780000D01*
X34780000Y-146780000D02*
X34780005Y-146780005D01*
X62712500Y-144375000D02*
X59837500Y-147250000D01*
X59837500Y-147250000D02*
X49247941Y-147250000D01*
X33990000Y-144240000D02*
X29700000Y-144240000D01*
X36000000Y-158500000D02*
X36000000Y-146250000D01*
X36575010Y-159075010D02*
X36000000Y-158500000D01*
X36000000Y-146250000D02*
X33990000Y-144240000D01*
X44374990Y-159075010D02*
X36575010Y-159075010D01*
X46500000Y-156950000D02*
X44374990Y-159075010D01*
X78800000Y-138700000D02*
X76500000Y-141000000D01*
X79100000Y-138700000D02*
X78800000Y-138700000D01*
X60132124Y-132975000D02*
X59350000Y-132975000D01*
X64507124Y-137350000D02*
X60132124Y-132975000D01*
X69430000Y-137350000D02*
X64507124Y-137350000D01*
X71305000Y-135475000D02*
X69430000Y-137350000D01*
X79100000Y-138700000D02*
X86450000Y-138700000D01*
X69430000Y-133600000D02*
X71305000Y-135475000D01*
X63500000Y-133600000D02*
X69430000Y-133600000D01*
X59399990Y-132374990D02*
X59350000Y-132325000D01*
X60380656Y-132374990D02*
X59399990Y-132374990D01*
X63505666Y-135500000D02*
X60380656Y-132374990D01*
X66720000Y-135500000D02*
X63505666Y-135500000D01*
X66745000Y-135475000D02*
X66720000Y-135500000D01*
X60132124Y-134275000D02*
X59350000Y-134275000D01*
X64257124Y-138400000D02*
X60132124Y-134275000D01*
X73295000Y-138400000D02*
X64257124Y-138400000D01*
X76220000Y-135475000D02*
X73295000Y-138400000D01*
X65000000Y-151520000D02*
X66720000Y-149800000D01*
X65000000Y-154552104D02*
X65000000Y-151520000D01*
X61927104Y-157625000D02*
X65000000Y-154552104D01*
X59150000Y-157625000D02*
X61927104Y-157625000D01*
X65799999Y-148299999D02*
X69779999Y-148299999D01*
X64000000Y-150099998D02*
X65799999Y-148299999D01*
X64000000Y-154703562D02*
X64000000Y-150099998D01*
X69779999Y-148299999D02*
X71280000Y-149800000D01*
X61728562Y-156975000D02*
X64000000Y-154703562D01*
X59150000Y-156975000D02*
X61728562Y-156975000D01*
X79000000Y-146500000D02*
X80780000Y-148280000D01*
X66751456Y-146500000D02*
X79000000Y-146500000D01*
X63399991Y-149851465D02*
X66751456Y-146500000D01*
X63399990Y-151600010D02*
X63399991Y-149851465D01*
X80780000Y-148280000D02*
X80780000Y-149800000D01*
X59975000Y-155025000D02*
X63399990Y-151600010D01*
X59150000Y-155025000D02*
X59975000Y-155025000D01*
X51750000Y-132500000D02*
X51750000Y-129350000D01*
X52225000Y-132975000D02*
X51750000Y-132500000D01*
X55050000Y-132975000D02*
X52225000Y-132975000D01*
X51599999Y-152150001D02*
X51750000Y-152000000D01*
X51599999Y-155284001D02*
X51599999Y-152150001D01*
X52015999Y-155700001D02*
X51599999Y-155284001D01*
X54849999Y-155700001D02*
X52015999Y-155700001D01*
X54850000Y-155675000D02*
X54849999Y-155700001D01*
X53275010Y-143175010D02*
X52000000Y-141900000D01*
X55769246Y-143175010D02*
X53275010Y-143175010D01*
X56469266Y-142474990D02*
X55769246Y-143175010D01*
X58487500Y-142462500D02*
X58475010Y-142474990D01*
X58475010Y-142474990D02*
X56469266Y-142474990D01*
X58487500Y-142425000D02*
X58487500Y-142462500D01*
X53275010Y-143624990D02*
X52000000Y-144900000D01*
X53275010Y-143175010D02*
X53275010Y-143624990D01*
X79100000Y-142400000D02*
X76500000Y-145000000D01*
X79100000Y-140300000D02*
X79100000Y-142400000D01*
X69225000Y-143725000D02*
X70500000Y-145000000D01*
X62712500Y-143725000D02*
X69225000Y-143725000D01*
X70500000Y-145000000D02*
X73400000Y-145000000D01*
X70500000Y-141000000D02*
X73400000Y-141000000D01*
X68425000Y-143075000D02*
X70500000Y-141000000D01*
X62712500Y-143075000D02*
X68425000Y-143075000D01*
X44300000Y-156000000D02*
X42750000Y-156000000D01*
X54225000Y-153750000D02*
X54850000Y-154375000D01*
X53500000Y-153750000D02*
X54225000Y-153750000D01*
X54375000Y-131000000D02*
X55050000Y-131675000D01*
X54000000Y-131000000D02*
X54375000Y-131000000D01*
X60542876Y-143075000D02*
X58487500Y-143075000D01*
X62617876Y-141000000D02*
X60542876Y-143075000D01*
X67400000Y-141000000D02*
X62617876Y-141000000D01*
X58487500Y-143725000D02*
X58487500Y-143075000D01*
X63500000Y-129700000D02*
X63100000Y-129300000D01*
X63500000Y-131875000D02*
X63500000Y-129700000D01*
X61800000Y-148600000D02*
X63100000Y-148600000D01*
X66220000Y-150300000D02*
X66720000Y-149800000D01*
X65000000Y-150300000D02*
X66220000Y-150300000D01*
X61900000Y-150425000D02*
X60075000Y-148600000D01*
X61900000Y-151000000D02*
X61900000Y-150425000D01*
D25*
X81803441Y-126096764D02*
X90369780Y-133592311D01*
X90442950Y-133671569D01*
X88954750Y-133673000D01*
X88873000Y-133754750D01*
X88873000Y-134127000D01*
X88893000Y-134127000D01*
X88893000Y-136573000D01*
X88873000Y-136573000D01*
X88873000Y-136700000D01*
X88135000Y-136700000D01*
X88129166Y-136640495D01*
X88123752Y-136581013D01*
X88123125Y-136578882D01*
X88122907Y-136576661D01*
X88105612Y-136519379D01*
X88088762Y-136462125D01*
X88087731Y-136460153D01*
X88087087Y-136458020D01*
X88059012Y-136405219D01*
X88031345Y-136352297D01*
X88029951Y-136350563D01*
X88028905Y-136348596D01*
X87991117Y-136302263D01*
X87953690Y-136255714D01*
X87951985Y-136254283D01*
X87950577Y-136252557D01*
X87904527Y-136214461D01*
X87858754Y-136176053D01*
X87856802Y-136174980D01*
X87855087Y-136173561D01*
X87802539Y-136145149D01*
X87750153Y-136116349D01*
X87748029Y-136115675D01*
X87746072Y-136114617D01*
X87689050Y-136096966D01*
X87632024Y-136078876D01*
X87629808Y-136078627D01*
X87627684Y-136077970D01*
X87568257Y-136071724D01*
X87508866Y-136065062D01*
X87504596Y-136065032D01*
X87504433Y-136065015D01*
X87504270Y-136065030D01*
X87500000Y-136065000D01*
X86107000Y-136065000D01*
X86107000Y-134127000D01*
X86127000Y-134127000D01*
X86127000Y-133754750D01*
X86045250Y-133673000D01*
X84400000Y-133671418D01*
X84335897Y-133677732D01*
X84274257Y-133696430D01*
X84217450Y-133726794D01*
X84167657Y-133767657D01*
X84132689Y-133810267D01*
X84025588Y-133673418D01*
X84009031Y-133655960D01*
X83866230Y-133531469D01*
X83846679Y-133517448D01*
X83682962Y-133422122D01*
X83672278Y-133416562D01*
X82665698Y-132951987D01*
X82659774Y-132946063D01*
X82490256Y-132832795D01*
X82301898Y-132754774D01*
X82190313Y-132732579D01*
X81852641Y-132576730D01*
X81839890Y-132571661D01*
X81692202Y-132522011D01*
X81703570Y-132500743D01*
X81722268Y-132439103D01*
X81728582Y-132375000D01*
X81727000Y-130629750D01*
X81645250Y-130548000D01*
X79873000Y-130548000D01*
X79873000Y-130568000D01*
X77127000Y-130568000D01*
X77127000Y-130548000D01*
X75354750Y-130548000D01*
X75273000Y-130629750D01*
X75271418Y-132375000D01*
X75277732Y-132439103D01*
X75296430Y-132500743D01*
X75326794Y-132557550D01*
X75365364Y-132604548D01*
X75313901Y-132629561D01*
X75294249Y-132641418D01*
X75148584Y-132748380D01*
X75131388Y-132763580D01*
X75007353Y-132895012D01*
X74999855Y-132903715D01*
X72303977Y-136334833D01*
X72191793Y-136453708D01*
X72171130Y-136468880D01*
X72150250Y-136448000D01*
X71778000Y-136448000D01*
X71778000Y-136575000D01*
X70959600Y-136575000D01*
X70880895Y-136525546D01*
X70832000Y-136476651D01*
X70832000Y-136448000D01*
X70803349Y-136448000D01*
X70774454Y-136419105D01*
X70705000Y-136308570D01*
X70705000Y-134641430D01*
X70774454Y-134530895D01*
X70803349Y-134502000D01*
X70832000Y-134502000D01*
X70832000Y-134473349D01*
X70880895Y-134424454D01*
X70959600Y-134375000D01*
X71778000Y-134375000D01*
X71778000Y-134502000D01*
X72150250Y-134502000D01*
X72232000Y-134420250D01*
X72233582Y-134375000D01*
X72678002Y-134375000D01*
X72678002Y-134048000D01*
X72093818Y-134048000D01*
X72215783Y-133945700D01*
X72233441Y-133927604D01*
X72357604Y-133771988D01*
X72371327Y-133750753D01*
X72462204Y-133573625D01*
X72467413Y-133562090D01*
X75266679Y-126436686D01*
X75271827Y-126426651D01*
X75273000Y-127720250D01*
X75354750Y-127802000D01*
X77127000Y-127802000D01*
X77127000Y-127782000D01*
X79873000Y-127782000D01*
X79873000Y-127802000D01*
X81645250Y-127802000D01*
X81727000Y-127720250D01*
X81728521Y-126042256D01*
X81803441Y-126096764D01*
G04 #@! TA.AperFunction,Conductor*
D26*
G36*
X81803441Y-126096764D02*
G01*
X90369780Y-133592311D01*
X90442950Y-133671569D01*
X88954750Y-133673000D01*
X88873000Y-133754750D01*
X88873000Y-134127000D01*
X88893000Y-134127000D01*
X88893000Y-136573000D01*
X88873000Y-136573000D01*
X88873000Y-136700000D01*
X88135000Y-136700000D01*
X88129166Y-136640495D01*
X88123752Y-136581013D01*
X88123125Y-136578882D01*
X88122907Y-136576661D01*
X88105612Y-136519379D01*
X88088762Y-136462125D01*
X88087731Y-136460153D01*
X88087087Y-136458020D01*
X88059012Y-136405219D01*
X88031345Y-136352297D01*
X88029951Y-136350563D01*
X88028905Y-136348596D01*
X87991117Y-136302263D01*
X87953690Y-136255714D01*
X87951985Y-136254283D01*
X87950577Y-136252557D01*
X87904527Y-136214461D01*
X87858754Y-136176053D01*
X87856802Y-136174980D01*
X87855087Y-136173561D01*
X87802539Y-136145149D01*
X87750153Y-136116349D01*
X87748029Y-136115675D01*
X87746072Y-136114617D01*
X87689050Y-136096966D01*
X87632024Y-136078876D01*
X87629808Y-136078627D01*
X87627684Y-136077970D01*
X87568257Y-136071724D01*
X87508866Y-136065062D01*
X87504596Y-136065032D01*
X87504433Y-136065015D01*
X87504270Y-136065030D01*
X87500000Y-136065000D01*
X86107000Y-136065000D01*
X86107000Y-134127000D01*
X86127000Y-134127000D01*
X86127000Y-133754750D01*
X86045250Y-133673000D01*
X84400000Y-133671418D01*
X84335897Y-133677732D01*
X84274257Y-133696430D01*
X84217450Y-133726794D01*
X84167657Y-133767657D01*
X84132689Y-133810267D01*
X84025588Y-133673418D01*
X84009031Y-133655960D01*
X83866230Y-133531469D01*
X83846679Y-133517448D01*
X83682962Y-133422122D01*
X83672278Y-133416562D01*
X82665698Y-132951987D01*
X82659774Y-132946063D01*
X82490256Y-132832795D01*
X82301898Y-132754774D01*
X82190313Y-132732579D01*
X81852641Y-132576730D01*
X81839890Y-132571661D01*
X81692202Y-132522011D01*
X81703570Y-132500743D01*
X81722268Y-132439103D01*
X81728582Y-132375000D01*
X81727000Y-130629750D01*
X81645250Y-130548000D01*
X79873000Y-130548000D01*
X79873000Y-130568000D01*
X77127000Y-130568000D01*
X77127000Y-130548000D01*
X75354750Y-130548000D01*
X75273000Y-130629750D01*
X75271418Y-132375000D01*
X75277732Y-132439103D01*
X75296430Y-132500743D01*
X75326794Y-132557550D01*
X75365364Y-132604548D01*
X75313901Y-132629561D01*
X75294249Y-132641418D01*
X75148584Y-132748380D01*
X75131388Y-132763580D01*
X75007353Y-132895012D01*
X74999855Y-132903715D01*
X72303977Y-136334833D01*
X72191793Y-136453708D01*
X72171130Y-136468880D01*
X72150250Y-136448000D01*
X71778000Y-136448000D01*
X71778000Y-136575000D01*
X70959600Y-136575000D01*
X70880895Y-136525546D01*
X70832000Y-136476651D01*
X70832000Y-136448000D01*
X70803349Y-136448000D01*
X70774454Y-136419105D01*
X70705000Y-136308570D01*
X70705000Y-134641430D01*
X70774454Y-134530895D01*
X70803349Y-134502000D01*
X70832000Y-134502000D01*
X70832000Y-134473349D01*
X70880895Y-134424454D01*
X70959600Y-134375000D01*
X71778000Y-134375000D01*
X71778000Y-134502000D01*
X72150250Y-134502000D01*
X72232000Y-134420250D01*
X72233582Y-134375000D01*
X72678002Y-134375000D01*
X72678002Y-134048000D01*
X72093818Y-134048000D01*
X72215783Y-133945700D01*
X72233441Y-133927604D01*
X72357604Y-133771988D01*
X72371327Y-133750753D01*
X72462204Y-133573625D01*
X72467413Y-133562090D01*
X75266679Y-126436686D01*
X75271827Y-126426651D01*
X75273000Y-127720250D01*
X75354750Y-127802000D01*
X77127000Y-127802000D01*
X77127000Y-127782000D01*
X79873000Y-127782000D01*
X79873000Y-127802000D01*
X81645250Y-127802000D01*
X81727000Y-127720250D01*
X81728521Y-126042256D01*
X81803441Y-126096764D01*
G37*
G04 #@! TD.AperFunction*
D25*
X88873000Y-142427000D02*
X88893000Y-142427000D01*
X88893000Y-144873000D01*
X88873000Y-144873000D01*
X88873000Y-145245250D01*
X88954750Y-145327000D01*
X90600000Y-145328582D01*
X90604840Y-145328105D01*
X90604817Y-145328338D01*
X89894885Y-148877996D01*
X89893037Y-148890389D01*
X89873618Y-149086506D01*
X89873000Y-149099020D01*
X89873000Y-150243766D01*
X89855624Y-150420189D01*
X89805978Y-150583850D01*
X89725362Y-150734672D01*
X89616870Y-150866870D01*
X89484672Y-150975362D01*
X89333850Y-151055978D01*
X89170189Y-151105624D01*
X88993766Y-151123000D01*
X87681285Y-151123000D01*
X87500000Y-150941715D01*
X87318715Y-151123000D01*
X86006234Y-151123000D01*
X85829811Y-151105624D01*
X85666150Y-151055978D01*
X85515328Y-150975362D01*
X85383130Y-150866870D01*
X85274638Y-150734672D01*
X85194022Y-150583850D01*
X85144376Y-150420189D01*
X85127000Y-150243766D01*
X85127000Y-149099020D01*
X85126382Y-149086506D01*
X85117646Y-148998277D01*
X85161742Y-148998277D01*
X85161742Y-149001723D01*
X85262907Y-149295378D01*
X85558285Y-149000000D01*
X89441715Y-149000000D01*
X89737093Y-149295378D01*
X89838258Y-149001723D01*
X89838258Y-148998277D01*
X89737093Y-148704622D01*
X89441715Y-149000000D01*
X85558285Y-149000000D01*
X85262907Y-148704622D01*
X85161742Y-148998277D01*
X85117646Y-148998277D01*
X85106963Y-148890389D01*
X85105115Y-148877996D01*
X84682097Y-146762907D01*
X87204622Y-146762907D01*
X87500000Y-147058285D01*
X87795378Y-146762907D01*
X87501723Y-146661742D01*
X87498277Y-146661742D01*
X87204622Y-146762907D01*
X84682097Y-146762907D01*
X84395183Y-145328338D01*
X84395160Y-145328105D01*
X84400000Y-145328582D01*
X86045250Y-145327000D01*
X86127000Y-145245250D01*
X86127000Y-144873000D01*
X86107000Y-144873000D01*
X86107000Y-142935000D01*
X87500000Y-142935000D01*
X87559505Y-142929166D01*
X87618987Y-142923752D01*
X87621118Y-142923125D01*
X87623339Y-142922907D01*
X87680621Y-142905612D01*
X87737875Y-142888762D01*
X87739847Y-142887731D01*
X87741980Y-142887087D01*
X87794781Y-142859012D01*
X87847703Y-142831345D01*
X87849437Y-142829951D01*
X87851404Y-142828905D01*
X87897737Y-142791117D01*
X87944286Y-142753690D01*
X87945717Y-142751985D01*
X87947443Y-142750577D01*
X87985539Y-142704527D01*
X88023947Y-142658754D01*
X88025020Y-142656802D01*
X88026439Y-142655087D01*
X88054851Y-142602539D01*
X88083651Y-142550153D01*
X88084325Y-142548029D01*
X88085383Y-142546072D01*
X88103034Y-142489050D01*
X88121124Y-142432024D01*
X88121373Y-142429808D01*
X88122030Y-142427684D01*
X88127357Y-142377000D01*
X88873000Y-142377000D01*
X88873000Y-142427000D01*
G04 #@! TA.AperFunction,Conductor*
D26*
G36*
X88873000Y-142427000D02*
G01*
X88893000Y-142427000D01*
X88893000Y-144873000D01*
X88873000Y-144873000D01*
X88873000Y-145245250D01*
X88954750Y-145327000D01*
X90600000Y-145328582D01*
X90604840Y-145328105D01*
X90604817Y-145328338D01*
X89894885Y-148877996D01*
X89893037Y-148890389D01*
X89873618Y-149086506D01*
X89873000Y-149099020D01*
X89873000Y-150243766D01*
X89855624Y-150420189D01*
X89805978Y-150583850D01*
X89725362Y-150734672D01*
X89616870Y-150866870D01*
X89484672Y-150975362D01*
X89333850Y-151055978D01*
X89170189Y-151105624D01*
X88993766Y-151123000D01*
X87681285Y-151123000D01*
X87500000Y-150941715D01*
X87318715Y-151123000D01*
X86006234Y-151123000D01*
X85829811Y-151105624D01*
X85666150Y-151055978D01*
X85515328Y-150975362D01*
X85383130Y-150866870D01*
X85274638Y-150734672D01*
X85194022Y-150583850D01*
X85144376Y-150420189D01*
X85127000Y-150243766D01*
X85127000Y-149099020D01*
X85126382Y-149086506D01*
X85117646Y-148998277D01*
X85161742Y-148998277D01*
X85161742Y-149001723D01*
X85262907Y-149295378D01*
X85558285Y-149000000D01*
X89441715Y-149000000D01*
X89737093Y-149295378D01*
X89838258Y-149001723D01*
X89838258Y-148998277D01*
X89737093Y-148704622D01*
X89441715Y-149000000D01*
X85558285Y-149000000D01*
X85262907Y-148704622D01*
X85161742Y-148998277D01*
X85117646Y-148998277D01*
X85106963Y-148890389D01*
X85105115Y-148877996D01*
X84682097Y-146762907D01*
X87204622Y-146762907D01*
X87500000Y-147058285D01*
X87795378Y-146762907D01*
X87501723Y-146661742D01*
X87498277Y-146661742D01*
X87204622Y-146762907D01*
X84682097Y-146762907D01*
X84395183Y-145328338D01*
X84395160Y-145328105D01*
X84400000Y-145328582D01*
X86045250Y-145327000D01*
X86127000Y-145245250D01*
X86127000Y-144873000D01*
X86107000Y-144873000D01*
X86107000Y-142935000D01*
X87500000Y-142935000D01*
X87559505Y-142929166D01*
X87618987Y-142923752D01*
X87621118Y-142923125D01*
X87623339Y-142922907D01*
X87680621Y-142905612D01*
X87737875Y-142888762D01*
X87739847Y-142887731D01*
X87741980Y-142887087D01*
X87794781Y-142859012D01*
X87847703Y-142831345D01*
X87849437Y-142829951D01*
X87851404Y-142828905D01*
X87897737Y-142791117D01*
X87944286Y-142753690D01*
X87945717Y-142751985D01*
X87947443Y-142750577D01*
X87985539Y-142704527D01*
X88023947Y-142658754D01*
X88025020Y-142656802D01*
X88026439Y-142655087D01*
X88054851Y-142602539D01*
X88083651Y-142550153D01*
X88084325Y-142548029D01*
X88085383Y-142546072D01*
X88103034Y-142489050D01*
X88121124Y-142432024D01*
X88121373Y-142429808D01*
X88122030Y-142427684D01*
X88127357Y-142377000D01*
X88873000Y-142377000D01*
X88873000Y-142427000D01*
G37*
G04 #@! TD.AperFunction*
D25*
X68225362Y-149265328D02*
X68305978Y-149416150D01*
X68355624Y-149579811D01*
X68373000Y-149756234D01*
X68373000Y-150250000D01*
X68373612Y-150262448D01*
X68392827Y-150457538D01*
X68397683Y-150481956D01*
X68454588Y-150669549D01*
X68464116Y-150692550D01*
X68556526Y-150865437D01*
X68570358Y-150886138D01*
X68694721Y-151037675D01*
X68712325Y-151055279D01*
X68863862Y-151179642D01*
X68884563Y-151193474D01*
X69057450Y-151285884D01*
X69080451Y-151295412D01*
X69268044Y-151352317D01*
X69292462Y-151357173D01*
X69487552Y-151376388D01*
X69500000Y-151377000D01*
X70260271Y-151377000D01*
X70325506Y-151430537D01*
X70435820Y-151489502D01*
X70555518Y-151525812D01*
X70680000Y-151538072D01*
X71880000Y-151538072D01*
X72004482Y-151525812D01*
X72124180Y-151489502D01*
X72234494Y-151430537D01*
X72299729Y-151377000D01*
X73159852Y-151377000D01*
X73352334Y-151397723D01*
X73529499Y-151456778D01*
X73695919Y-151555689D01*
X74001368Y-151784776D01*
X74004774Y-151801898D01*
X74082795Y-151990256D01*
X74196063Y-152159774D01*
X74340226Y-152303937D01*
X74509744Y-152417205D01*
X74698102Y-152495226D01*
X74898061Y-152535000D01*
X75001666Y-152535000D01*
X75157133Y-152651600D01*
X75168447Y-152659173D01*
X75312257Y-152744646D01*
X75296430Y-152774257D01*
X75277732Y-152835897D01*
X75271418Y-152900000D01*
X75273000Y-154645250D01*
X75354750Y-154727000D01*
X77127000Y-154727000D01*
X77127000Y-154707000D01*
X79873000Y-154707000D01*
X79873000Y-154727000D01*
X81645250Y-154727000D01*
X81727000Y-154645250D01*
X81728582Y-152900000D01*
X81728233Y-152896459D01*
X87302715Y-153361000D01*
X87500000Y-153558285D01*
X87681285Y-153377000D01*
X88743766Y-153377000D01*
X88920189Y-153394376D01*
X89083850Y-153444022D01*
X89234672Y-153524638D01*
X89366870Y-153633130D01*
X89475362Y-153765328D01*
X89555978Y-153916150D01*
X89605624Y-154079811D01*
X89623000Y-154256234D01*
X89623000Y-155318715D01*
X89441715Y-155500000D01*
X89623000Y-155681285D01*
X89623000Y-156743766D01*
X89605624Y-156920189D01*
X89555978Y-157083850D01*
X89475362Y-157234672D01*
X89366870Y-157366870D01*
X89234672Y-157475362D01*
X89083850Y-157555978D01*
X88920189Y-157605624D01*
X88743766Y-157623000D01*
X87681285Y-157623000D01*
X87500000Y-157441715D01*
X87251539Y-157690176D01*
X81728477Y-159301070D01*
X81728582Y-159300000D01*
X81727000Y-157554750D01*
X81645250Y-157473000D01*
X79873000Y-157473000D01*
X79873000Y-157493000D01*
X77127000Y-157493000D01*
X77127000Y-157473000D01*
X75354750Y-157473000D01*
X75273000Y-157554750D01*
X75271418Y-159300000D01*
X75277732Y-159364103D01*
X75280431Y-159373000D01*
X74632172Y-159373000D01*
X74459505Y-159353439D01*
X74302397Y-159298144D01*
X74161641Y-159209106D01*
X74044373Y-159090841D01*
X73956529Y-158949331D01*
X73902567Y-158791760D01*
X73884471Y-158618937D01*
X73910917Y-155498277D01*
X85161742Y-155498277D01*
X85161742Y-155501723D01*
X85262907Y-155795378D01*
X85558285Y-155500000D01*
X85262907Y-155204622D01*
X85161742Y-155498277D01*
X73910917Y-155498277D01*
X73922832Y-154092343D01*
X73922401Y-154080756D01*
X73907305Y-153898975D01*
X73903291Y-153876160D01*
X73855426Y-153700145D01*
X73847333Y-153678439D01*
X73768292Y-153514048D01*
X73756392Y-153494173D01*
X73648805Y-153346873D01*
X73633492Y-153329490D01*
X73500938Y-153204184D01*
X73492157Y-153196612D01*
X72750421Y-152613820D01*
X72738877Y-152605743D01*
X72550592Y-152489012D01*
X72525185Y-152476927D01*
X72315820Y-152404515D01*
X72290144Y-152398720D01*
X72254494Y-152369463D01*
X72144180Y-152310498D01*
X72024482Y-152274188D01*
X71900000Y-152261928D01*
X66652610Y-152261928D01*
X66612070Y-152236455D01*
X66513545Y-152137930D01*
X66439419Y-152019960D01*
X66393403Y-151888451D01*
X66377000Y-151742872D01*
X66377000Y-150773000D01*
X67193000Y-150773000D01*
X67193000Y-151145250D01*
X67274750Y-151227000D01*
X67320000Y-151228582D01*
X67384103Y-151222268D01*
X67445743Y-151203570D01*
X67502550Y-151173206D01*
X67552343Y-151132343D01*
X67593206Y-151082550D01*
X67623570Y-151025743D01*
X67642268Y-150964103D01*
X67648582Y-150900000D01*
X67647000Y-150854750D01*
X67565250Y-150773000D01*
X67193000Y-150773000D01*
X66377000Y-150773000D01*
X66377000Y-149756234D01*
X66394376Y-149579811D01*
X66444022Y-149416150D01*
X66524638Y-149265328D01*
X66631596Y-149134999D01*
X68118404Y-149134999D01*
X68225362Y-149265328D01*
G04 #@! TA.AperFunction,Conductor*
D26*
G36*
X68225362Y-149265328D02*
G01*
X68305978Y-149416150D01*
X68355624Y-149579811D01*
X68373000Y-149756234D01*
X68373000Y-150250000D01*
X68373612Y-150262448D01*
X68392827Y-150457538D01*
X68397683Y-150481956D01*
X68454588Y-150669549D01*
X68464116Y-150692550D01*
X68556526Y-150865437D01*
X68570358Y-150886138D01*
X68694721Y-151037675D01*
X68712325Y-151055279D01*
X68863862Y-151179642D01*
X68884563Y-151193474D01*
X69057450Y-151285884D01*
X69080451Y-151295412D01*
X69268044Y-151352317D01*
X69292462Y-151357173D01*
X69487552Y-151376388D01*
X69500000Y-151377000D01*
X70260271Y-151377000D01*
X70325506Y-151430537D01*
X70435820Y-151489502D01*
X70555518Y-151525812D01*
X70680000Y-151538072D01*
X71880000Y-151538072D01*
X72004482Y-151525812D01*
X72124180Y-151489502D01*
X72234494Y-151430537D01*
X72299729Y-151377000D01*
X73159852Y-151377000D01*
X73352334Y-151397723D01*
X73529499Y-151456778D01*
X73695919Y-151555689D01*
X74001368Y-151784776D01*
X74004774Y-151801898D01*
X74082795Y-151990256D01*
X74196063Y-152159774D01*
X74340226Y-152303937D01*
X74509744Y-152417205D01*
X74698102Y-152495226D01*
X74898061Y-152535000D01*
X75001666Y-152535000D01*
X75157133Y-152651600D01*
X75168447Y-152659173D01*
X75312257Y-152744646D01*
X75296430Y-152774257D01*
X75277732Y-152835897D01*
X75271418Y-152900000D01*
X75273000Y-154645250D01*
X75354750Y-154727000D01*
X77127000Y-154727000D01*
X77127000Y-154707000D01*
X79873000Y-154707000D01*
X79873000Y-154727000D01*
X81645250Y-154727000D01*
X81727000Y-154645250D01*
X81728582Y-152900000D01*
X81728233Y-152896459D01*
X87302715Y-153361000D01*
X87500000Y-153558285D01*
X87681285Y-153377000D01*
X88743766Y-153377000D01*
X88920189Y-153394376D01*
X89083850Y-153444022D01*
X89234672Y-153524638D01*
X89366870Y-153633130D01*
X89475362Y-153765328D01*
X89555978Y-153916150D01*
X89605624Y-154079811D01*
X89623000Y-154256234D01*
X89623000Y-155318715D01*
X89441715Y-155500000D01*
X89623000Y-155681285D01*
X89623000Y-156743766D01*
X89605624Y-156920189D01*
X89555978Y-157083850D01*
X89475362Y-157234672D01*
X89366870Y-157366870D01*
X89234672Y-157475362D01*
X89083850Y-157555978D01*
X88920189Y-157605624D01*
X88743766Y-157623000D01*
X87681285Y-157623000D01*
X87500000Y-157441715D01*
X87251539Y-157690176D01*
X81728477Y-159301070D01*
X81728582Y-159300000D01*
X81727000Y-157554750D01*
X81645250Y-157473000D01*
X79873000Y-157473000D01*
X79873000Y-157493000D01*
X77127000Y-157493000D01*
X77127000Y-157473000D01*
X75354750Y-157473000D01*
X75273000Y-157554750D01*
X75271418Y-159300000D01*
X75277732Y-159364103D01*
X75280431Y-159373000D01*
X74632172Y-159373000D01*
X74459505Y-159353439D01*
X74302397Y-159298144D01*
X74161641Y-159209106D01*
X74044373Y-159090841D01*
X73956529Y-158949331D01*
X73902567Y-158791760D01*
X73884471Y-158618937D01*
X73910917Y-155498277D01*
X85161742Y-155498277D01*
X85161742Y-155501723D01*
X85262907Y-155795378D01*
X85558285Y-155500000D01*
X85262907Y-155204622D01*
X85161742Y-155498277D01*
X73910917Y-155498277D01*
X73922832Y-154092343D01*
X73922401Y-154080756D01*
X73907305Y-153898975D01*
X73903291Y-153876160D01*
X73855426Y-153700145D01*
X73847333Y-153678439D01*
X73768292Y-153514048D01*
X73756392Y-153494173D01*
X73648805Y-153346873D01*
X73633492Y-153329490D01*
X73500938Y-153204184D01*
X73492157Y-153196612D01*
X72750421Y-152613820D01*
X72738877Y-152605743D01*
X72550592Y-152489012D01*
X72525185Y-152476927D01*
X72315820Y-152404515D01*
X72290144Y-152398720D01*
X72254494Y-152369463D01*
X72144180Y-152310498D01*
X72024482Y-152274188D01*
X71900000Y-152261928D01*
X66652610Y-152261928D01*
X66612070Y-152236455D01*
X66513545Y-152137930D01*
X66439419Y-152019960D01*
X66393403Y-151888451D01*
X66377000Y-151742872D01*
X66377000Y-150773000D01*
X67193000Y-150773000D01*
X67193000Y-151145250D01*
X67274750Y-151227000D01*
X67320000Y-151228582D01*
X67384103Y-151222268D01*
X67445743Y-151203570D01*
X67502550Y-151173206D01*
X67552343Y-151132343D01*
X67593206Y-151082550D01*
X67623570Y-151025743D01*
X67642268Y-150964103D01*
X67648582Y-150900000D01*
X67647000Y-150854750D01*
X67565250Y-150773000D01*
X67193000Y-150773000D01*
X66377000Y-150773000D01*
X66377000Y-149756234D01*
X66394376Y-149579811D01*
X66444022Y-149416150D01*
X66524638Y-149265328D01*
X66631596Y-149134999D01*
X68118404Y-149134999D01*
X68225362Y-149265328D01*
G37*
G04 #@! TD.AperFunction*
D25*
X77170189Y-147644376D02*
X77333850Y-147694022D01*
X77484672Y-147774638D01*
X77616870Y-147883130D01*
X77725362Y-148015328D01*
X77805978Y-148166150D01*
X77855624Y-148329811D01*
X77873000Y-148506234D01*
X77873000Y-150993766D01*
X77855624Y-151170189D01*
X77805978Y-151333850D01*
X77725362Y-151484672D01*
X77616870Y-151616870D01*
X77484672Y-151725362D01*
X77333850Y-151805978D01*
X77170189Y-151855624D01*
X76993766Y-151873000D01*
X75506234Y-151873000D01*
X75329811Y-151855624D01*
X75166150Y-151805978D01*
X75015328Y-151725362D01*
X74883130Y-151616870D01*
X74774638Y-151484672D01*
X74694022Y-151333850D01*
X74644376Y-151170189D01*
X74627000Y-150993766D01*
X74627000Y-150900000D01*
X75291418Y-150900000D01*
X75297732Y-150964103D01*
X75316430Y-151025743D01*
X75346794Y-151082550D01*
X75387657Y-151132343D01*
X75437450Y-151173206D01*
X75494257Y-151203570D01*
X75555897Y-151222268D01*
X75620000Y-151228582D01*
X75665250Y-151227000D01*
X75747000Y-151145250D01*
X75747000Y-150773000D01*
X76693000Y-150773000D01*
X76693000Y-151145250D01*
X76774750Y-151227000D01*
X76820000Y-151228582D01*
X76884103Y-151222268D01*
X76945743Y-151203570D01*
X77002550Y-151173206D01*
X77052343Y-151132343D01*
X77093206Y-151082550D01*
X77123570Y-151025743D01*
X77142268Y-150964103D01*
X77148582Y-150900000D01*
X77147000Y-150854750D01*
X77065250Y-150773000D01*
X76693000Y-150773000D01*
X75747000Y-150773000D01*
X75374750Y-150773000D01*
X75293000Y-150854750D01*
X75291418Y-150900000D01*
X74627000Y-150900000D01*
X74627000Y-148700000D01*
X75291418Y-148700000D01*
X75293000Y-148745250D01*
X75374750Y-148827000D01*
X75747000Y-148827000D01*
X75747000Y-148454750D01*
X76693000Y-148454750D01*
X76693000Y-148827000D01*
X77065250Y-148827000D01*
X77147000Y-148745250D01*
X77148582Y-148700000D01*
X77142268Y-148635897D01*
X77123570Y-148574257D01*
X77093206Y-148517450D01*
X77052343Y-148467657D01*
X77002550Y-148426794D01*
X76945743Y-148396430D01*
X76884103Y-148377732D01*
X76820000Y-148371418D01*
X76774750Y-148373000D01*
X76693000Y-148454750D01*
X75747000Y-148454750D01*
X75665250Y-148373000D01*
X75620000Y-148371418D01*
X75555897Y-148377732D01*
X75494257Y-148396430D01*
X75437450Y-148426794D01*
X75387657Y-148467657D01*
X75346794Y-148517450D01*
X75316430Y-148574257D01*
X75297732Y-148635897D01*
X75291418Y-148700000D01*
X74627000Y-148700000D01*
X74627000Y-148506234D01*
X74644376Y-148329811D01*
X74694022Y-148166150D01*
X74774638Y-148015328D01*
X74883130Y-147883130D01*
X75015328Y-147774638D01*
X75166150Y-147694022D01*
X75329811Y-147644376D01*
X75506234Y-147627000D01*
X76993766Y-147627000D01*
X77170189Y-147644376D01*
G04 #@! TA.AperFunction,Conductor*
D26*
G36*
X77170189Y-147644376D02*
G01*
X77333850Y-147694022D01*
X77484672Y-147774638D01*
X77616870Y-147883130D01*
X77725362Y-148015328D01*
X77805978Y-148166150D01*
X77855624Y-148329811D01*
X77873000Y-148506234D01*
X77873000Y-150993766D01*
X77855624Y-151170189D01*
X77805978Y-151333850D01*
X77725362Y-151484672D01*
X77616870Y-151616870D01*
X77484672Y-151725362D01*
X77333850Y-151805978D01*
X77170189Y-151855624D01*
X76993766Y-151873000D01*
X75506234Y-151873000D01*
X75329811Y-151855624D01*
X75166150Y-151805978D01*
X75015328Y-151725362D01*
X74883130Y-151616870D01*
X74774638Y-151484672D01*
X74694022Y-151333850D01*
X74644376Y-151170189D01*
X74627000Y-150993766D01*
X74627000Y-150900000D01*
X75291418Y-150900000D01*
X75297732Y-150964103D01*
X75316430Y-151025743D01*
X75346794Y-151082550D01*
X75387657Y-151132343D01*
X75437450Y-151173206D01*
X75494257Y-151203570D01*
X75555897Y-151222268D01*
X75620000Y-151228582D01*
X75665250Y-151227000D01*
X75747000Y-151145250D01*
X75747000Y-150773000D01*
X76693000Y-150773000D01*
X76693000Y-151145250D01*
X76774750Y-151227000D01*
X76820000Y-151228582D01*
X76884103Y-151222268D01*
X76945743Y-151203570D01*
X77002550Y-151173206D01*
X77052343Y-151132343D01*
X77093206Y-151082550D01*
X77123570Y-151025743D01*
X77142268Y-150964103D01*
X77148582Y-150900000D01*
X77147000Y-150854750D01*
X77065250Y-150773000D01*
X76693000Y-150773000D01*
X75747000Y-150773000D01*
X75374750Y-150773000D01*
X75293000Y-150854750D01*
X75291418Y-150900000D01*
X74627000Y-150900000D01*
X74627000Y-148700000D01*
X75291418Y-148700000D01*
X75293000Y-148745250D01*
X75374750Y-148827000D01*
X75747000Y-148827000D01*
X75747000Y-148454750D01*
X76693000Y-148454750D01*
X76693000Y-148827000D01*
X77065250Y-148827000D01*
X77147000Y-148745250D01*
X77148582Y-148700000D01*
X77142268Y-148635897D01*
X77123570Y-148574257D01*
X77093206Y-148517450D01*
X77052343Y-148467657D01*
X77002550Y-148426794D01*
X76945743Y-148396430D01*
X76884103Y-148377732D01*
X76820000Y-148371418D01*
X76774750Y-148373000D01*
X76693000Y-148454750D01*
X75747000Y-148454750D01*
X75665250Y-148373000D01*
X75620000Y-148371418D01*
X75555897Y-148377732D01*
X75494257Y-148396430D01*
X75437450Y-148426794D01*
X75387657Y-148467657D01*
X75346794Y-148517450D01*
X75316430Y-148574257D01*
X75297732Y-148635897D01*
X75291418Y-148700000D01*
X74627000Y-148700000D01*
X74627000Y-148506234D01*
X74644376Y-148329811D01*
X74694022Y-148166150D01*
X74774638Y-148015328D01*
X74883130Y-147883130D01*
X75015328Y-147774638D01*
X75166150Y-147694022D01*
X75329811Y-147644376D01*
X75506234Y-147627000D01*
X76993766Y-147627000D01*
X77170189Y-147644376D01*
G37*
G04 #@! TD.AperFunction*
D25*
X81670189Y-133394376D02*
X81833850Y-133444022D01*
X81984672Y-133524638D01*
X82116870Y-133633130D01*
X82225362Y-133765328D01*
X82305978Y-133916150D01*
X82355624Y-134079811D01*
X82373000Y-134256234D01*
X82373000Y-136743766D01*
X82355624Y-136920189D01*
X82305978Y-137083850D01*
X82225362Y-137234672D01*
X82116870Y-137366870D01*
X81984672Y-137475362D01*
X81833850Y-137555978D01*
X81804108Y-137565000D01*
X79695892Y-137565000D01*
X79666150Y-137555978D01*
X79515328Y-137475362D01*
X79383130Y-137366870D01*
X79274638Y-137234672D01*
X79194022Y-137083850D01*
X79144376Y-136920189D01*
X79127000Y-136743766D01*
X79127000Y-136575000D01*
X79851418Y-136575000D01*
X79857732Y-136639103D01*
X79876430Y-136700743D01*
X79906794Y-136757550D01*
X79947657Y-136807343D01*
X79997450Y-136848206D01*
X80054257Y-136878570D01*
X80115897Y-136897268D01*
X80180000Y-136903582D01*
X80225250Y-136902000D01*
X80307000Y-136820250D01*
X80307000Y-136448000D01*
X81253000Y-136448000D01*
X81253000Y-136820250D01*
X81334750Y-136902000D01*
X81380000Y-136903582D01*
X81444103Y-136897268D01*
X81505743Y-136878570D01*
X81562550Y-136848206D01*
X81612343Y-136807343D01*
X81653206Y-136757550D01*
X81683570Y-136700743D01*
X81702268Y-136639103D01*
X81708582Y-136575000D01*
X81707000Y-136529750D01*
X81625250Y-136448000D01*
X81253000Y-136448000D01*
X80307000Y-136448000D01*
X79934750Y-136448000D01*
X79853000Y-136529750D01*
X79851418Y-136575000D01*
X79127000Y-136575000D01*
X79127000Y-134375000D01*
X79851418Y-134375000D01*
X79853000Y-134420250D01*
X79934750Y-134502000D01*
X80307000Y-134502000D01*
X80307000Y-134129750D01*
X81253000Y-134129750D01*
X81253000Y-134502000D01*
X81625250Y-134502000D01*
X81707000Y-134420250D01*
X81708582Y-134375000D01*
X81702268Y-134310897D01*
X81683570Y-134249257D01*
X81653206Y-134192450D01*
X81612343Y-134142657D01*
X81562550Y-134101794D01*
X81505743Y-134071430D01*
X81444103Y-134052732D01*
X81380000Y-134046418D01*
X81334750Y-134048000D01*
X81253000Y-134129750D01*
X80307000Y-134129750D01*
X80225250Y-134048000D01*
X80180000Y-134046418D01*
X80115897Y-134052732D01*
X80054257Y-134071430D01*
X79997450Y-134101794D01*
X79947657Y-134142657D01*
X79906794Y-134192450D01*
X79876430Y-134249257D01*
X79857732Y-134310897D01*
X79851418Y-134375000D01*
X79127000Y-134375000D01*
X79127000Y-134256234D01*
X79144376Y-134079811D01*
X79194022Y-133916150D01*
X79274638Y-133765328D01*
X79383130Y-133633130D01*
X79515328Y-133524638D01*
X79666150Y-133444022D01*
X79829811Y-133394376D01*
X80006234Y-133377000D01*
X81493766Y-133377000D01*
X81670189Y-133394376D01*
G04 #@! TA.AperFunction,Conductor*
D26*
G36*
X81670189Y-133394376D02*
G01*
X81833850Y-133444022D01*
X81984672Y-133524638D01*
X82116870Y-133633130D01*
X82225362Y-133765328D01*
X82305978Y-133916150D01*
X82355624Y-134079811D01*
X82373000Y-134256234D01*
X82373000Y-136743766D01*
X82355624Y-136920189D01*
X82305978Y-137083850D01*
X82225362Y-137234672D01*
X82116870Y-137366870D01*
X81984672Y-137475362D01*
X81833850Y-137555978D01*
X81804108Y-137565000D01*
X79695892Y-137565000D01*
X79666150Y-137555978D01*
X79515328Y-137475362D01*
X79383130Y-137366870D01*
X79274638Y-137234672D01*
X79194022Y-137083850D01*
X79144376Y-136920189D01*
X79127000Y-136743766D01*
X79127000Y-136575000D01*
X79851418Y-136575000D01*
X79857732Y-136639103D01*
X79876430Y-136700743D01*
X79906794Y-136757550D01*
X79947657Y-136807343D01*
X79997450Y-136848206D01*
X80054257Y-136878570D01*
X80115897Y-136897268D01*
X80180000Y-136903582D01*
X80225250Y-136902000D01*
X80307000Y-136820250D01*
X80307000Y-136448000D01*
X81253000Y-136448000D01*
X81253000Y-136820250D01*
X81334750Y-136902000D01*
X81380000Y-136903582D01*
X81444103Y-136897268D01*
X81505743Y-136878570D01*
X81562550Y-136848206D01*
X81612343Y-136807343D01*
X81653206Y-136757550D01*
X81683570Y-136700743D01*
X81702268Y-136639103D01*
X81708582Y-136575000D01*
X81707000Y-136529750D01*
X81625250Y-136448000D01*
X81253000Y-136448000D01*
X80307000Y-136448000D01*
X79934750Y-136448000D01*
X79853000Y-136529750D01*
X79851418Y-136575000D01*
X79127000Y-136575000D01*
X79127000Y-134375000D01*
X79851418Y-134375000D01*
X79853000Y-134420250D01*
X79934750Y-134502000D01*
X80307000Y-134502000D01*
X80307000Y-134129750D01*
X81253000Y-134129750D01*
X81253000Y-134502000D01*
X81625250Y-134502000D01*
X81707000Y-134420250D01*
X81708582Y-134375000D01*
X81702268Y-134310897D01*
X81683570Y-134249257D01*
X81653206Y-134192450D01*
X81612343Y-134142657D01*
X81562550Y-134101794D01*
X81505743Y-134071430D01*
X81444103Y-134052732D01*
X81380000Y-134046418D01*
X81334750Y-134048000D01*
X81253000Y-134129750D01*
X80307000Y-134129750D01*
X80225250Y-134048000D01*
X80180000Y-134046418D01*
X80115897Y-134052732D01*
X80054257Y-134071430D01*
X79997450Y-134101794D01*
X79947657Y-134142657D01*
X79906794Y-134192450D01*
X79876430Y-134249257D01*
X79857732Y-134310897D01*
X79851418Y-134375000D01*
X79127000Y-134375000D01*
X79127000Y-134256234D01*
X79144376Y-134079811D01*
X79194022Y-133916150D01*
X79274638Y-133765328D01*
X79383130Y-133633130D01*
X79515328Y-133524638D01*
X79666150Y-133444022D01*
X79829811Y-133394376D01*
X80006234Y-133377000D01*
X81493766Y-133377000D01*
X81670189Y-133394376D01*
G37*
G04 #@! TD.AperFunction*
D25*
X45170189Y-135144376D02*
X45333850Y-135194022D01*
X45484672Y-135274638D01*
X45616870Y-135383130D01*
X45725362Y-135515328D01*
X45805978Y-135666150D01*
X45855624Y-135829811D01*
X45869575Y-135971456D01*
X42604750Y-135973000D01*
X42523000Y-136054750D01*
X42523000Y-138827000D01*
X42543000Y-138827000D01*
X42543000Y-141573000D01*
X42523000Y-141573000D01*
X42523000Y-141593000D01*
X39777000Y-141593000D01*
X39777000Y-141573000D01*
X39757000Y-141573000D01*
X39757000Y-138827000D01*
X39777000Y-138827000D01*
X39777000Y-136054750D01*
X39695250Y-135973000D01*
X36380428Y-135971432D01*
X36394376Y-135829811D01*
X36444022Y-135666150D01*
X36524638Y-135515328D01*
X36633130Y-135383130D01*
X36765328Y-135274638D01*
X36916150Y-135194022D01*
X37079811Y-135144376D01*
X37256234Y-135127000D01*
X44993766Y-135127000D01*
X45170189Y-135144376D01*
G04 #@! TA.AperFunction,Conductor*
D26*
G36*
X45170189Y-135144376D02*
G01*
X45333850Y-135194022D01*
X45484672Y-135274638D01*
X45616870Y-135383130D01*
X45725362Y-135515328D01*
X45805978Y-135666150D01*
X45855624Y-135829811D01*
X45869575Y-135971456D01*
X42604750Y-135973000D01*
X42523000Y-136054750D01*
X42523000Y-138827000D01*
X42543000Y-138827000D01*
X42543000Y-141573000D01*
X42523000Y-141573000D01*
X42523000Y-141593000D01*
X39777000Y-141593000D01*
X39777000Y-141573000D01*
X39757000Y-141573000D01*
X39757000Y-138827000D01*
X39777000Y-138827000D01*
X39777000Y-136054750D01*
X39695250Y-135973000D01*
X36380428Y-135971432D01*
X36394376Y-135829811D01*
X36444022Y-135666150D01*
X36524638Y-135515328D01*
X36633130Y-135383130D01*
X36765328Y-135274638D01*
X36916150Y-135194022D01*
X37079811Y-135144376D01*
X37256234Y-135127000D01*
X44993766Y-135127000D01*
X45170189Y-135144376D01*
G37*
G04 #@! TD.AperFunction*
D25*
X46314778Y-124268184D02*
X46334024Y-124283978D01*
X46346924Y-124291539D01*
X46451462Y-124344804D01*
X46474646Y-124353878D01*
X46489252Y-124357082D01*
X46605133Y-124375436D01*
X46625000Y-124377000D01*
X71243766Y-124377000D01*
X71420189Y-124394376D01*
X71583850Y-124444022D01*
X71734672Y-124524638D01*
X71866870Y-124633130D01*
X71975362Y-124765328D01*
X72055978Y-124916150D01*
X72105624Y-125079811D01*
X72123000Y-125256234D01*
X72123000Y-125714473D01*
X72107550Y-125701794D01*
X72050743Y-125671430D01*
X71989103Y-125652732D01*
X71925000Y-125646418D01*
X70479750Y-125648000D01*
X70398000Y-125729750D01*
X70398000Y-127802000D01*
X70418000Y-127802000D01*
X70418000Y-130548000D01*
X70398000Y-130548000D01*
X70398000Y-130568000D01*
X67652000Y-130568000D01*
X67652000Y-130548000D01*
X67632000Y-130548000D01*
X67632000Y-127802000D01*
X67652000Y-127802000D01*
X67652000Y-125729750D01*
X67570250Y-125648000D01*
X66125000Y-125646418D01*
X66060897Y-125652732D01*
X65999257Y-125671430D01*
X65942450Y-125701794D01*
X65892657Y-125742657D01*
X65851794Y-125792450D01*
X65821430Y-125849257D01*
X65802732Y-125910897D01*
X65796418Y-125975000D01*
X65797533Y-127204579D01*
X65787675Y-127194721D01*
X65636138Y-127070358D01*
X65615437Y-127056526D01*
X65442550Y-126964116D01*
X65419549Y-126954588D01*
X65231956Y-126897683D01*
X65207538Y-126892827D01*
X65012448Y-126873612D01*
X65000000Y-126873000D01*
X50000000Y-126873000D01*
X49987552Y-126873612D01*
X49792462Y-126892827D01*
X49768044Y-126897683D01*
X49580451Y-126954588D01*
X49557450Y-126964116D01*
X49384563Y-127056526D01*
X49363862Y-127070358D01*
X49212325Y-127194721D01*
X49194721Y-127212325D01*
X49070358Y-127363862D01*
X49056526Y-127384563D01*
X48964116Y-127557450D01*
X48954588Y-127580451D01*
X48897683Y-127768044D01*
X48892827Y-127792462D01*
X48873612Y-127987552D01*
X48873000Y-128000000D01*
X48873000Y-130743766D01*
X48855624Y-130920189D01*
X48805978Y-131083850D01*
X48725362Y-131234672D01*
X48616870Y-131366870D01*
X48484672Y-131475362D01*
X48333850Y-131555978D01*
X48170189Y-131605624D01*
X47993766Y-131623000D01*
X46276317Y-131623000D01*
X46278582Y-131600000D01*
X46277000Y-129154750D01*
X46195250Y-129073000D01*
X42523000Y-129073000D01*
X42523000Y-129093000D01*
X39777000Y-129093000D01*
X39777000Y-129073000D01*
X36104750Y-129073000D01*
X36023000Y-129154750D01*
X36022820Y-129432530D01*
X35886138Y-129320358D01*
X35865437Y-129306526D01*
X35692550Y-129214116D01*
X35669549Y-129204588D01*
X35481956Y-129147683D01*
X35457538Y-129142827D01*
X35262448Y-129123612D01*
X35250000Y-129123000D01*
X28506234Y-129123000D01*
X28329811Y-129105624D01*
X28166150Y-129055978D01*
X28015328Y-128975362D01*
X27883130Y-128866870D01*
X27774638Y-128734672D01*
X27694022Y-128583850D01*
X27644376Y-128420189D01*
X27627000Y-128243766D01*
X27627000Y-127331285D01*
X27758285Y-127200000D01*
X31641715Y-127200000D01*
X31937093Y-127495378D01*
X32038258Y-127201723D01*
X32038258Y-127198277D01*
X31937093Y-126904622D01*
X31641715Y-127200000D01*
X27758285Y-127200000D01*
X27627000Y-127068715D01*
X27627000Y-126006234D01*
X27644376Y-125829811D01*
X27694022Y-125666150D01*
X27774638Y-125515328D01*
X27883130Y-125383130D01*
X28015328Y-125274638D01*
X28166150Y-125194022D01*
X28329811Y-125144376D01*
X28506234Y-125127000D01*
X29568715Y-125127000D01*
X29700000Y-125258285D01*
X29831285Y-125127000D01*
X35500000Y-125127000D01*
X35514219Y-125126201D01*
X35681110Y-125107397D01*
X35708836Y-125101069D01*
X35867358Y-125045600D01*
X35892981Y-125033261D01*
X36022163Y-124952090D01*
X36023000Y-126245250D01*
X36104750Y-126327000D01*
X39777000Y-126327000D01*
X39777000Y-126307000D01*
X42523000Y-126307000D01*
X42523000Y-126327000D01*
X46195250Y-126327000D01*
X46277000Y-126245250D01*
X46278303Y-124231709D01*
X46314778Y-124268184D01*
G04 #@! TA.AperFunction,Conductor*
D26*
G36*
X46314778Y-124268184D02*
G01*
X46334024Y-124283978D01*
X46346924Y-124291539D01*
X46451462Y-124344804D01*
X46474646Y-124353878D01*
X46489252Y-124357082D01*
X46605133Y-124375436D01*
X46625000Y-124377000D01*
X71243766Y-124377000D01*
X71420189Y-124394376D01*
X71583850Y-124444022D01*
X71734672Y-124524638D01*
X71866870Y-124633130D01*
X71975362Y-124765328D01*
X72055978Y-124916150D01*
X72105624Y-125079811D01*
X72123000Y-125256234D01*
X72123000Y-125714473D01*
X72107550Y-125701794D01*
X72050743Y-125671430D01*
X71989103Y-125652732D01*
X71925000Y-125646418D01*
X70479750Y-125648000D01*
X70398000Y-125729750D01*
X70398000Y-127802000D01*
X70418000Y-127802000D01*
X70418000Y-130548000D01*
X70398000Y-130548000D01*
X70398000Y-130568000D01*
X67652000Y-130568000D01*
X67652000Y-130548000D01*
X67632000Y-130548000D01*
X67632000Y-127802000D01*
X67652000Y-127802000D01*
X67652000Y-125729750D01*
X67570250Y-125648000D01*
X66125000Y-125646418D01*
X66060897Y-125652732D01*
X65999257Y-125671430D01*
X65942450Y-125701794D01*
X65892657Y-125742657D01*
X65851794Y-125792450D01*
X65821430Y-125849257D01*
X65802732Y-125910897D01*
X65796418Y-125975000D01*
X65797533Y-127204579D01*
X65787675Y-127194721D01*
X65636138Y-127070358D01*
X65615437Y-127056526D01*
X65442550Y-126964116D01*
X65419549Y-126954588D01*
X65231956Y-126897683D01*
X65207538Y-126892827D01*
X65012448Y-126873612D01*
X65000000Y-126873000D01*
X50000000Y-126873000D01*
X49987552Y-126873612D01*
X49792462Y-126892827D01*
X49768044Y-126897683D01*
X49580451Y-126954588D01*
X49557450Y-126964116D01*
X49384563Y-127056526D01*
X49363862Y-127070358D01*
X49212325Y-127194721D01*
X49194721Y-127212325D01*
X49070358Y-127363862D01*
X49056526Y-127384563D01*
X48964116Y-127557450D01*
X48954588Y-127580451D01*
X48897683Y-127768044D01*
X48892827Y-127792462D01*
X48873612Y-127987552D01*
X48873000Y-128000000D01*
X48873000Y-130743766D01*
X48855624Y-130920189D01*
X48805978Y-131083850D01*
X48725362Y-131234672D01*
X48616870Y-131366870D01*
X48484672Y-131475362D01*
X48333850Y-131555978D01*
X48170189Y-131605624D01*
X47993766Y-131623000D01*
X46276317Y-131623000D01*
X46278582Y-131600000D01*
X46277000Y-129154750D01*
X46195250Y-129073000D01*
X42523000Y-129073000D01*
X42523000Y-129093000D01*
X39777000Y-129093000D01*
X39777000Y-129073000D01*
X36104750Y-129073000D01*
X36023000Y-129154750D01*
X36022820Y-129432530D01*
X35886138Y-129320358D01*
X35865437Y-129306526D01*
X35692550Y-129214116D01*
X35669549Y-129204588D01*
X35481956Y-129147683D01*
X35457538Y-129142827D01*
X35262448Y-129123612D01*
X35250000Y-129123000D01*
X28506234Y-129123000D01*
X28329811Y-129105624D01*
X28166150Y-129055978D01*
X28015328Y-128975362D01*
X27883130Y-128866870D01*
X27774638Y-128734672D01*
X27694022Y-128583850D01*
X27644376Y-128420189D01*
X27627000Y-128243766D01*
X27627000Y-127331285D01*
X27758285Y-127200000D01*
X31641715Y-127200000D01*
X31937093Y-127495378D01*
X32038258Y-127201723D01*
X32038258Y-127198277D01*
X31937093Y-126904622D01*
X31641715Y-127200000D01*
X27758285Y-127200000D01*
X27627000Y-127068715D01*
X27627000Y-126006234D01*
X27644376Y-125829811D01*
X27694022Y-125666150D01*
X27774638Y-125515328D01*
X27883130Y-125383130D01*
X28015328Y-125274638D01*
X28166150Y-125194022D01*
X28329811Y-125144376D01*
X28506234Y-125127000D01*
X29568715Y-125127000D01*
X29700000Y-125258285D01*
X29831285Y-125127000D01*
X35500000Y-125127000D01*
X35514219Y-125126201D01*
X35681110Y-125107397D01*
X35708836Y-125101069D01*
X35867358Y-125045600D01*
X35892981Y-125033261D01*
X36022163Y-124952090D01*
X36023000Y-126245250D01*
X36104750Y-126327000D01*
X39777000Y-126327000D01*
X39777000Y-126307000D01*
X42523000Y-126307000D01*
X42523000Y-126327000D01*
X46195250Y-126327000D01*
X46277000Y-126245250D01*
X46278303Y-124231709D01*
X46314778Y-124268184D01*
G37*
G04 #@! TD.AperFunction*
M02*
