M48
; DRILL file {KiCad (5.1.10)-1} date 09/07/21 16:34:40
; FORMAT={-:-/ absolute / metric / decimal}
; #@! TF.CreationDate,2021-09-07T16:34:40-04:00
; #@! TF.GenerationSoftware,Kicad,Pcbnew,(5.1.10)-1
; #@! TF.FileFunction,Plated,1,2,PTH
FMAT,2
METRIC
T1C0.400
T2C1.000
T3C2.000
%
G90
G05
T1
X34.78Y-146.78
X36.8Y-158.0
X37.25Y-135.5
X38.25Y-135.5
X39.25Y-135.5
X39.5Y-150.7
X39.5Y-152.5
X40.25Y-135.5
X41.25Y-135.5
X41.5Y-154.75
X42.25Y-135.5
X42.75Y-156.0
X43.25Y-135.5
X43.75Y-151.0
X44.25Y-135.5
X44.5Y-145.25
X45.25Y-135.5
X45.541Y-152.959
X47.0Y-151.0
X47.75Y-145.25
X48.25Y-156.0
X48.75Y-148.75
X49.248Y-147.25
X52.6Y-154.75
X52.65Y-156.95
X53.0Y-131.9
X53.0Y-134.2
X53.5Y-153.75
X54.0Y-131.0
X55.25Y-140.0
X56.6Y-155.0
X56.75Y-145.25
X56.8Y-132.35
X57.35Y-156.95
X57.55Y-134.25
X58.5Y-139.75
X59.5Y-136.0
X61.0Y-155.5
X62.75Y-139.5
X63.1Y-148.6
X64.5Y-142.25
X65.0Y-150.3
X66.75Y-126.5
X66.75Y-128.25
X66.75Y-130.0
X66.75Y-131.75
X66.75Y-153.5
X66.75Y-155.0
X66.75Y-156.75
X66.75Y-158.5
X69.0Y-126.5
X69.0Y-128.25
X69.0Y-130.0
X69.0Y-131.75
X69.0Y-153.5
X69.0Y-155.0
X69.0Y-156.75
X69.0Y-158.5
X71.25Y-126.5
X71.25Y-128.25
X71.25Y-130.0
X71.25Y-131.75
X71.25Y-153.5
X71.25Y-155.0
X71.25Y-156.75
X71.25Y-158.5
X75.0Y-148.0
X75.0Y-149.75
X75.0Y-151.5
X76.25Y-148.0
X76.25Y-151.5
X77.5Y-148.0
X77.5Y-149.75
X77.5Y-151.5
X79.5Y-133.75
X79.5Y-135.5
X79.5Y-137.25
X80.75Y-133.75
X80.75Y-137.25
X82.0Y-133.75
X82.0Y-135.5
X82.0Y-137.25
T2
X29.7Y-141.7
X29.7Y-144.24
X29.7Y-146.78
X29.7Y-149.32
T3
X29.7Y-127.2
X29.7Y-134.2
X29.7Y-156.2
X87.5Y-149.0
X87.5Y-155.5
T0
M30
